<svg width="258" height="54" viewBox="0 0 258 54" fill="none" xmlns="http://www.w3.org/2000/svg">
<g clip-path="url(#clip0)">
<path d="M53.6283 12.2703C53.0995 12.2703 52.6709 11.9244 52.6709 11.4976V7.87101C52.6709 4.38304 49.1536 1.54532 44.8304 1.54532C40.5071 1.54532 36.9899 4.38304 36.9899 7.87101V11.4977C36.9899 11.9245 36.5613 12.2704 36.0324 12.2704C35.5036 12.2704 35.075 11.9245 35.075 11.4977V7.87101C35.075 3.53097 39.4513 0 44.8304 0C50.2095 0 54.5858 3.53097 54.5858 7.87101V11.4977C54.5858 11.9244 54.1572 12.2703 53.6283 12.2703V12.2703Z" fill="#AA593D"/>
<path d="M56.071 10.5443V49.8726C56.071 51.0051 54.9331 51.9231 53.5296 51.9231H60.9012C62.3048 51.9231 63.4426 51.0049 63.4426 49.8723V11.0593C63.4426 10.7749 63.1569 10.5443 62.8044 10.5443H56.071Z" fill="#E7A561"/>
<path d="M53.5478 51.9231H18.5242C17.1306 51.9231 16.0009 50.9985 16.0009 49.8579V11.063C16.0009 10.7765 16.2847 10.5443 16.6347 10.5443H56.071V49.858C56.071 50.9985 54.9413 51.9231 53.5478 51.9231Z" fill="#F9EF63"/>
<path d="M58.3734 49.8724V10.5443H56.0711V49.8726C56.0711 51.0051 54.9333 51.9231 53.5297 51.9231H55.8322C57.2357 51.9231 58.3734 51.005 58.3734 49.8724Z" fill="#E49542"/>
<path d="M53.7687 10.5443V49.8725C53.7687 51.0051 52.631 51.9232 51.2276 51.9232H53.53C54.9334 51.9232 56.0712 51.0051 56.0712 49.8725V10.5443H53.7687Z" fill="#F1D333"/>
<path d="M26.2933 24.5532V50.5776C26.2933 51.3207 25.5467 51.9231 24.6257 51.9231H29.4627C30.3837 51.9231 31.1303 51.3206 31.1303 50.5773V25.0683C31.1303 24.7838 30.8445 24.5532 30.492 24.5532H26.2933Z" fill="#D82E3D"/>
<path d="M28.5955 50.5776V24.5532H26.2931V50.5776C26.2931 51.3208 25.5466 51.9231 24.6255 51.9231H26.9279C27.849 51.9231 28.5955 51.3207 28.5955 50.5776Z" fill="#C32430"/>
<path d="M24.7338 26.2519C24.2051 26.2519 23.7763 25.906 23.7763 25.4792V22.7806C23.7763 20.6383 21.6161 18.8954 18.9608 18.8954C16.3055 18.8954 14.1452 20.6383 14.1452 22.7806V25.4792C14.1452 25.906 13.7166 26.2519 13.1877 26.2519C12.659 26.2519 12.2303 25.906 12.2303 25.4792V22.7806C12.2303 19.7862 15.2495 17.3502 18.9608 17.3502C22.6719 17.3502 25.6913 19.7862 25.6913 22.7806V25.4792C25.6913 25.906 25.2627 26.2519 24.7338 26.2519V26.2519Z" fill="#AA593D"/>
<path d="M24.6374 51.9231H1.6557C0.741238 51.9231 0 51.3163 0 50.568V25.0719C0 24.7855 0.283757 24.5532 0.633807 24.5532H26.2932V50.568C26.2932 51.3163 25.5519 51.9231 24.6374 51.9231V51.9231Z" fill="#DD636E"/>
<path d="M23.9908 24.5532V50.5775C23.9908 51.3207 23.2443 51.9231 22.3234 51.9231H24.6258C25.5467 51.9231 26.2932 51.3207 26.2932 50.5775V24.5532H23.9908Z" fill="#DA4A54"/>
<path d="M27.2345 16.498C27.7154 16.498 28.1052 16.1834 28.1052 15.7955C28.1052 15.4075 27.7154 15.093 27.2345 15.093C26.7536 15.093 26.3638 15.4075 26.3638 15.7955C26.3638 16.1834 26.7536 16.498 27.2345 16.498Z" fill="black"/>
<path d="M44.8304 16.498C45.3113 16.498 45.7011 16.1834 45.7011 15.7955C45.7011 15.4075 45.3113 15.093 44.8304 15.093C44.3495 15.093 43.9597 15.4075 43.9597 15.7955C43.9597 16.1834 44.3495 16.498 44.8304 16.498Z" fill="black"/>
<path d="M8.28546 27.9807C8.28546 27.5927 7.89563 27.2782 7.41473 27.2782C6.93383 27.2782 6.54401 27.5927 6.54401 27.9807C6.54401 28.3687 6.93383 28.6831 7.41473 28.6831C7.89563 28.6831 8.28546 28.3687 8.28546 27.9807Z" fill="black"/>
<path d="M19.8315 27.9806C19.8315 27.5926 19.4417 27.2782 18.9608 27.2782C18.4799 27.2782 18.0901 27.5926 18.0901 27.9806C18.0901 28.3687 18.4799 28.6831 18.9608 28.6831C19.4417 28.6831 19.8315 28.3687 19.8315 27.9806Z" fill="#8C808A"/>
<path d="M27.2346 14.3203C26.2266 14.3203 25.4064 14.982 25.4064 15.7955C25.4064 16.6089 26.2266 17.2706 27.2346 17.2706C28.2426 17.2706 29.0627 16.6089 29.0627 15.7955C29.0627 14.982 28.2425 14.3203 27.2346 14.3203Z" fill="#AA593D"/>
<path d="M44.8304 14.3203C43.8224 14.3203 43.0023 14.982 43.0023 15.7955C43.0023 16.6089 43.8224 17.2706 44.8304 17.2706C45.8384 17.2706 46.6584 16.6089 46.6584 15.7955C46.6584 14.982 45.8384 14.3203 44.8304 14.3203Z" fill="#AA593D"/>
<path d="M7.41473 26.5055C6.40672 26.5055 5.58667 27.1672 5.58667 27.9806C5.58667 28.794 6.40672 29.4558 7.41473 29.4558C8.42275 29.4558 9.24292 28.7941 9.24292 27.9806C9.24292 27.1672 8.42275 26.5055 7.41473 26.5055V26.5055Z" fill="#F9EF63"/>
<path d="M18.9608 26.5055C17.9528 26.5055 17.1328 27.1672 17.1328 27.9806C17.1328 28.794 17.9529 29.4558 18.9608 29.4558C19.9688 29.4558 20.789 28.7941 20.789 27.9806C20.789 27.1672 19.9688 26.5055 18.9608 26.5055Z" fill="#F9EF63"/>
<path d="M18.9608 28.7533C18.4321 28.7533 18.0033 28.4074 18.0033 27.9806V22.7807C18.0033 20.6384 15.8431 18.8955 13.1878 18.8955C10.5325 18.8955 8.37208 20.6384 8.37208 22.7807V27.9806C8.37208 28.4073 7.94347 28.7533 7.41462 28.7533C6.88589 28.7533 6.45715 28.4074 6.45715 27.9806V22.7807C6.45715 19.7863 9.4765 17.3503 13.1876 17.3503C16.8988 17.3503 19.9181 19.7863 19.9181 22.7807V27.9806C19.9183 28.4073 19.4895 28.7533 18.9608 28.7533Z" fill="#E49542"/>
<path d="M44.8304 16.5681C44.3016 16.5681 43.8729 16.2222 43.8729 15.7955V7.87101C43.8729 4.38304 40.3557 1.54532 36.0326 1.54532C31.7093 1.54532 28.1921 4.38304 28.1921 7.87101V15.7955C28.1921 16.2222 27.7635 16.5681 27.2346 16.5681C26.7059 16.5681 26.2772 16.2222 26.2772 15.7955V7.87101C26.2772 3.53097 30.6533 0 36.0325 0C41.4116 0 45.7879 3.53097 45.7879 7.87101V15.7955C45.7879 16.2222 45.3593 16.5681 44.8304 16.5681Z" fill="#E49542"/>
</g>
<path d="M86.6429 31.9764C83.7484 31.1444 81.639 30.1248 80.3148 28.9178C79.0023 27.6991 78.346 26.1991 78.346 24.4178C78.346 22.4022 79.1487 20.7381 80.7542 19.4256C82.3714 18.1014 84.4691 17.4393 87.0472 17.4393C88.805 17.4393 90.3694 17.7791 91.7405 18.4588C93.1234 19.1385 94.1898 20.076 94.9398 21.2713C95.7015 22.4666 96.0823 23.7733 96.0823 25.1913H92.6898C92.6898 23.6444 92.1976 22.4315 91.2132 21.5526C90.2288 20.662 88.8401 20.2166 87.0472 20.2166C85.3831 20.2166 84.0823 20.5858 83.1448 21.3241C82.2191 22.0506 81.7562 23.0643 81.7562 24.3651C81.7562 25.4081 82.1956 26.2928 83.0745 27.0194C83.9651 27.7342 85.471 28.3905 87.5921 28.9881C89.7249 29.5858 91.389 30.2479 92.5843 30.9745C93.7913 31.6893 94.6819 32.5272 95.2562 33.4881C95.8421 34.4491 96.1351 35.5799 96.1351 36.8807C96.1351 38.9549 95.3265 40.619 93.7093 41.8729C92.0921 43.1151 89.93 43.7362 87.223 43.7362C85.4651 43.7362 83.8245 43.4022 82.3011 42.7342C80.7776 42.0545 79.5999 41.1288 78.7679 39.9569C77.9476 38.785 77.5374 37.4549 77.5374 35.9666H80.93C80.93 37.5135 81.4984 38.7381 82.6351 39.6405C83.7835 40.5311 85.3128 40.9764 87.223 40.9764C89.0042 40.9764 90.3694 40.6131 91.3187 39.8866C92.2679 39.16 92.7425 38.1698 92.7425 36.9159C92.7425 35.662 92.303 34.6952 91.4241 34.0155C90.5452 33.3241 88.9515 32.6444 86.6429 31.9764ZM103.219 26.6678C104.66 24.8983 106.535 24.0135 108.844 24.0135C112.864 24.0135 114.891 26.2811 114.926 30.8163V43.3846H111.674V30.7987C111.662 29.4276 111.346 28.4139 110.725 27.7577C110.116 27.1014 109.16 26.7733 107.86 26.7733C106.805 26.7733 105.879 27.0545 105.082 27.617C104.285 28.1795 103.664 28.9178 103.219 29.8319V43.3846H99.9671V16.3846H103.219V26.6678ZM118.934 33.6991C118.934 31.8358 119.297 30.16 120.024 28.6717C120.762 27.1834 121.782 26.035 123.082 25.2264C124.395 24.4178 125.889 24.0135 127.565 24.0135C130.155 24.0135 132.246 24.91 133.84 26.703C135.446 28.4959 136.248 30.8807 136.248 33.8573V34.0858C136.248 35.9373 135.891 37.6014 135.176 39.078C134.473 40.5428 133.459 41.6854 132.135 42.5057C130.823 43.326 129.311 43.7362 127.6 43.7362C125.022 43.7362 122.93 42.8397 121.325 41.0467C119.731 39.2538 118.934 36.8807 118.934 33.9276V33.6991ZM122.203 34.0858C122.203 36.1952 122.69 37.8885 123.662 39.1659C124.647 40.4432 125.959 41.0819 127.6 41.0819C129.252 41.0819 130.565 40.4373 131.537 39.1483C132.51 37.8475 132.996 36.0311 132.996 33.6991C132.996 31.6131 132.498 29.9256 131.502 28.6366C130.518 27.3358 129.205 26.6854 127.565 26.6854C125.959 26.6854 124.664 27.3241 123.68 28.6014C122.696 29.8788 122.203 31.7069 122.203 34.0858ZM156.393 34.0858C156.393 36.9803 155.731 39.3123 154.407 41.0819C153.082 42.8514 151.289 43.7362 149.028 43.7362C146.719 43.7362 144.903 43.0038 143.578 41.5389V50.6971H140.326V24.3651H143.297L143.455 26.4745C144.78 24.8338 146.619 24.0135 148.975 24.0135C151.26 24.0135 153.065 24.8748 154.389 26.5975C155.725 28.3202 156.393 30.7166 156.393 33.787V34.0858ZM153.141 33.7166C153.141 31.5721 152.684 29.8788 151.77 28.6366C150.856 27.3944 149.602 26.7733 148.008 26.7733C146.039 26.7733 144.563 27.6463 143.578 29.3924V38.4803C144.551 40.2147 146.039 41.0819 148.043 41.0819C149.602 41.0819 150.838 40.4666 151.752 39.2362C152.678 37.994 153.141 36.1541 153.141 33.7166ZM176.608 34.0858C176.608 36.9803 175.946 39.3123 174.621 41.0819C173.297 42.8514 171.504 43.7362 169.242 43.7362C166.934 43.7362 165.117 43.0038 163.793 41.5389V50.6971H160.541V24.3651H163.512L163.67 26.4745C164.994 24.8338 166.834 24.0135 169.19 24.0135C171.475 24.0135 173.28 24.8748 174.604 26.5975C175.94 28.3202 176.608 30.7166 176.608 33.787V34.0858ZM173.356 33.7166C173.356 31.5721 172.899 29.8788 171.985 28.6366C171.071 27.3944 169.817 26.7733 168.223 26.7733C166.254 26.7733 164.778 27.6463 163.793 29.3924V38.4803C164.766 40.2147 166.254 41.0819 168.258 41.0819C169.817 41.0819 171.053 40.4666 171.967 39.2362C172.893 37.994 173.356 36.1541 173.356 33.7166ZM184.289 43.3846H181.037V24.3651H184.289V43.3846ZM180.774 19.3202C180.774 18.7928 180.932 18.3475 181.248 17.9842C181.576 17.6209 182.057 17.4393 182.69 17.4393C183.323 17.4393 183.803 17.6209 184.131 17.9842C184.459 18.3475 184.623 18.7928 184.623 19.3202C184.623 19.8475 184.459 20.287 184.131 20.6385C183.803 20.9901 183.323 21.1659 182.69 21.1659C182.057 21.1659 181.576 20.9901 181.248 20.6385C180.932 20.287 180.774 19.8475 180.774 19.3202ZM192.586 24.3651L192.692 26.7557C194.145 24.9276 196.043 24.0135 198.387 24.0135C202.407 24.0135 204.434 26.2811 204.469 30.8163V43.3846H201.217V30.7987C201.205 29.4276 200.889 28.4139 200.268 27.7577C199.659 27.1014 198.703 26.7733 197.403 26.7733C196.348 26.7733 195.422 27.0545 194.625 27.617C193.828 28.1795 193.207 28.9178 192.762 29.8319V43.3846H189.51V24.3651H192.586ZM208.6 33.7166C208.6 30.7518 209.285 28.3963 210.657 26.6502C212.028 24.8924 213.844 24.0135 216.106 24.0135C218.426 24.0135 220.237 24.8338 221.537 26.4745L221.696 24.3651H224.666V42.9276C224.666 45.3885 223.934 47.328 222.469 48.7459C221.016 50.1639 219.059 50.8729 216.598 50.8729C215.227 50.8729 213.885 50.5799 212.573 49.994C211.26 49.4081 210.258 48.6053 209.567 47.5858L211.254 45.6346C212.649 47.3573 214.354 48.2186 216.369 48.2186C217.951 48.2186 219.182 47.7733 220.061 46.8827C220.951 45.992 221.397 44.7381 221.397 43.1209V41.4862C220.096 42.9862 218.321 43.7362 216.071 43.7362C213.844 43.7362 212.039 42.8397 210.657 41.0467C209.285 39.2538 208.6 36.8104 208.6 33.7166ZM211.869 34.0858C211.869 36.2303 212.309 37.9178 213.188 39.1483C214.067 40.367 215.297 40.9764 216.879 40.9764C218.93 40.9764 220.436 40.0448 221.397 38.1815V29.4979C220.401 27.6815 218.907 26.7733 216.914 26.7733C215.332 26.7733 214.096 27.3885 213.205 28.619C212.315 29.8495 211.869 31.6717 211.869 34.0858ZM230.748 30.5526L232.049 17.7909H245.162V20.7967H234.809L234.035 27.7752C235.289 27.037 236.713 26.6678 238.307 26.6678C240.639 26.6678 242.491 27.4413 243.862 28.9881C245.233 30.5233 245.918 32.6034 245.918 35.2284C245.918 37.8651 245.203 39.9452 243.774 41.4686C242.356 42.9803 240.369 43.7362 237.815 43.7362C235.553 43.7362 233.707 43.1092 232.278 41.8553C230.848 40.6014 230.034 38.867 229.834 36.6522H232.91C233.11 38.117 233.631 39.2245 234.475 39.9745C235.319 40.7127 236.432 41.0819 237.815 41.0819C239.326 41.0819 240.51 40.5663 241.366 39.535C242.233 38.5038 242.666 37.0799 242.666 35.2635C242.666 33.5526 242.198 32.1815 241.26 31.1502C240.334 30.1073 239.098 29.5858 237.551 29.5858C236.133 29.5858 235.02 29.8963 234.211 30.5174L233.35 31.2206L230.748 30.5526Z" fill="black"/>
<defs>
<clipPath id="clip0">
<rect width="63.4426" height="51.9231" fill="white"/>
</clipPath>
</defs>
</svg>
