<svg width="235" height="61" viewBox="0 0 235 61" fill="none" xmlns="http://www.w3.org/2000/svg">
<path d="M27.9521 16.0816L31.8348 5.94159L56.8833 16.8631" fill="#32BEA6"/>
<path d="M47.8761 61C52.1849 61 55.6779 57.722 55.6779 53.6783C55.6779 49.6347 52.1849 46.3567 47.8761 46.3567C43.5673 46.3567 40.0743 49.6347 40.0743 53.6783C40.0743 57.722 43.5673 61 47.8761 61Z" fill="black"/>
<path d="M24.3418 61C28.6506 61 32.1436 57.722 32.1436 53.6783C32.1436 49.6347 28.6506 46.3567 24.3418 46.3567C20.033 46.3567 16.54 49.6347 16.54 53.6783C16.54 57.722 20.033 61 24.3418 61Z" fill="black"/>
<path d="M18.4777 18.0326L13.351 3.80285H0.0863037V0H16.2596L22.3156 16.8145L18.4777 18.0326Z" fill="black"/>
<path d="M8.64777 14.8397H64.9137L54.189 43.078H18.0176L8.64777 14.8397Z" fill="#FF583E"/>
<path d="M53.5857 22.0737H21.1721V23.9799H53.5857V22.0737Z" fill="white"/>
<path d="M42.2669 28.3517H21.1721V30.2579H42.2669V28.3517Z" fill="white"/>
<path d="M84.3125 46.3516C82.8828 46.3516 81.5352 46.082 80.2695 45.543C79.0039 45.0039 78.0781 44.2773 77.4922 43.3633L79.4258 41.0781C80.6914 42.7891 82.4492 43.6328 84.6992 43.6094C85.9648 43.6094 87.0312 43.2812 87.8984 42.625C88.8594 41.8516 89.4102 40.7852 89.5508 39.4258C89.6914 37.8789 88.9297 36.707 87.2656 35.9102C85.6484 35.207 84.043 34.5273 82.4492 33.8711C80.668 32.8398 79.7773 31.293 79.7773 29.2305C79.7773 28.9023 79.8008 28.5508 79.8477 28.1758C80.0352 26.3945 80.8906 24.918 82.4141 23.7461C83.8438 22.5977 85.5195 22.0234 87.4414 22.0234C89.6445 22.0234 91.5898 22.75 93.2773 24.2031L91.5547 26.4883C90.4062 25.3398 88.9414 24.7656 87.1602 24.7656C84.7227 24.7656 83.3633 25.9727 83.082 28.3867C82.918 29.9102 84.043 31.0938 86.457 31.9375C88.7773 32.7578 90.3125 33.4609 91.0625 34.0469C92.1641 34.9375 92.7148 36.2852 92.7148 38.0898C92.7148 38.4648 92.6914 38.8867 92.6445 39.3555C92.4102 41.6992 91.4258 43.4922 89.6914 44.7344C88.2148 45.8125 86.4219 46.3516 84.3125 46.3516ZM106.707 46L107.973 34.293C107.996 34.0352 108.008 33.7891 108.008 33.5547C108.008 32.3828 107.68 31.4805 107.023 30.8477C106.484 30.3086 105.816 30.0391 105.02 30.0391C103.941 30.0391 102.805 30.4727 101.609 31.3398C100.438 32.207 99.8164 33.0156 99.7461 33.7656L98.4805 46H95.6328L98.2695 20.9336H101.117L100.168 30.1797C101.316 29.1953 102.266 28.5273 103.016 28.1758C103.789 27.8008 104.633 27.6133 105.547 27.6133C106.977 27.6133 108.207 28.1055 109.238 29.0898C110.316 30.1445 110.855 31.4688 110.855 33.0625C110.855 33.3203 110.844 33.5781 110.82 33.8359L109.52 46H106.707ZM122 46.3867C119.164 46.3867 117.113 45.4375 115.848 43.5391C114.91 42.2031 114.441 40.4688 114.441 38.3359C114.441 37.8672 114.465 37.3984 114.512 36.9297C114.84 33.8359 116.059 31.4219 118.168 29.6875C119.926 28.2812 121.883 27.5781 124.039 27.5781C125.984 27.5781 127.648 28.1875 129.031 29.4062C130.648 30.8359 131.445 32.875 131.422 35.5234C131.422 35.9688 131.398 36.4375 131.352 36.9297C131.141 39.0625 130.391 41.0195 129.102 42.8008C127.32 45.1914 124.953 46.3867 122 46.3867ZM123.969 29.9688C121.859 29.9688 120.219 30.8828 119.047 32.7109C118.039 34.2812 117.535 36.1562 117.535 38.3359C117.535 40 117.887 41.3359 118.59 42.3438C119.41 43.4922 120.582 44.0664 122.105 44.0664C124.145 44.0664 125.738 43.1406 126.887 41.2891C127.848 39.7188 128.328 37.8555 128.328 35.6992C128.328 34.0352 127.988 32.6992 127.309 31.6914C126.535 30.543 125.422 29.9688 123.969 29.9688ZM141.406 46.457C139.883 46.457 138.559 45.7773 137.434 44.418L136.484 53.1016H133.672L136.309 28.1758H139.156L138.98 29.8633C140.738 28.3164 142.227 27.5547 143.445 27.5781C148.18 27.5781 150.547 29.9336 150.547 34.6445C150.547 37.8086 149.844 40.4805 148.438 42.6602C146.797 45.1914 144.453 46.457 141.406 46.457ZM143.129 29.9688C142.262 29.9688 141.371 30.25 140.457 30.8125C139.566 31.375 138.969 32.0664 138.664 32.8867L137.645 42.3789C138.98 43.5039 140.375 44.0664 141.828 44.0664C143.375 44.0664 144.676 43.2227 145.73 41.5352C146.598 40.1523 147.113 38.6055 147.277 36.8945C147.324 36.332 147.348 35.8164 147.348 35.3477C147.348 31.7617 145.941 29.9688 143.129 29.9688ZM160.004 46.457C158.48 46.457 157.156 45.7773 156.031 44.418L155.082 53.1016H152.27L154.906 28.1758H157.754L157.578 29.8633C159.336 28.3164 160.824 27.5547 162.043 27.5781C166.777 27.5781 169.145 29.9336 169.145 34.6445C169.145 37.8086 168.441 40.4805 167.035 42.6602C165.395 45.1914 163.051 46.457 160.004 46.457ZM161.727 29.9688C160.859 29.9688 159.969 30.25 159.055 30.8125C158.164 31.375 157.566 32.0664 157.262 32.8867L156.242 42.3789C157.578 43.5039 158.973 44.0664 160.426 44.0664C161.973 44.0664 163.273 43.2227 164.328 41.5352C165.195 40.1523 165.711 38.6055 165.875 36.8945C165.922 36.332 165.945 35.8164 165.945 35.3477C165.945 31.7617 164.539 29.9688 161.727 29.9688ZM175.086 24.3438C174.547 24.3438 174.102 24.1562 173.75 23.7812C173.422 23.4062 173.293 22.9258 173.363 22.3398C173.41 21.7773 173.645 21.3203 174.066 20.9688C174.488 20.5938 174.98 20.4062 175.543 20.4062C176.059 20.4062 176.48 20.5938 176.809 20.9688C177.137 21.3438 177.277 21.8008 177.23 22.3398C177.16 22.9258 176.914 23.4062 176.492 23.7812C176.094 24.1562 175.625 24.3438 175.086 24.3438ZM171.148 46L173.047 28.1758H175.965L174.066 46H171.148ZM190.695 46L191.926 34.293C191.973 34.0352 191.996 33.7891 191.996 33.5547C191.996 32.3828 191.668 31.4805 191.012 30.8477C190.473 30.3086 189.805 30.0391 189.008 30.0391C188.047 30.0391 186.992 30.4258 185.844 31.1992C184.555 32.0898 183.852 33.0859 183.734 34.1875L182.469 46H179.621L181.484 28.1758H184.332L184.121 30.1797C185.293 29.1953 186.266 28.5273 187.039 28.1758C187.812 27.8008 188.668 27.6133 189.605 27.6133C190.988 27.6133 192.184 28.1055 193.191 29.0898C194.293 30.168 194.844 31.5039 194.844 33.0977C194.844 33.332 194.832 33.5781 194.809 33.8359L193.508 46H190.695ZM212.422 43.7852C212.047 47.5117 211.426 50.1133 210.559 51.5898C209.27 53.8398 207.043 54.9648 203.879 54.9648C201.113 54.9648 198.875 53.8398 197.164 51.5898L198.887 49.5508C200.199 51.4727 202.051 52.4336 204.441 52.4336C206.199 52.4336 207.453 51.6367 208.203 50.043C208.555 49.293 208.859 47.9453 209.117 46L209.645 42.4492C208.355 45.0742 206.855 46.375 205.145 46.3516C203.012 46.3516 201.324 45.625 200.082 44.1719C198.957 42.8359 198.395 41.1016 198.395 38.9688C198.395 38.3359 198.453 37.7031 198.57 37.0703C198.969 34.7031 199.812 32.6992 201.102 31.0586C202.812 28.9023 205.039 27.8242 207.781 27.8242C208.93 27.8242 209.809 27.8594 210.418 27.9297C211.027 27.9766 211.672 28 212.352 28H214.109L212.422 43.7852ZM211.016 30.3906C209.938 30.2031 208.859 30.0977 207.781 30.0742C205.719 30.0977 204.113 31.0352 202.965 32.8867C201.98 34.457 201.488 36.332 201.488 38.5117C201.488 39.9414 201.793 41.1484 202.402 42.1328C203.129 43.2578 204.125 43.832 205.391 43.8555C206.375 43.8555 207.406 43.1875 208.484 41.8516C209.375 40.75 209.855 39.8711 209.926 39.2148C209.996 38.5586 210.359 35.6172 211.016 30.3906ZM223.109 47.2305C221.797 47.2305 220.426 46.8438 218.996 46.0703C217.566 45.2969 216.605 44.4297 216.113 43.4688L217.484 41.5352C218.164 42.4258 219.055 43.2109 220.156 43.8906C221.398 44.6641 222.57 45.0391 223.672 45.0156C225.266 45.0156 226.648 44.4648 227.82 43.3633C228.992 42.2617 229.648 40.9727 229.789 39.4961C229.953 37.9023 229.566 36.543 228.629 35.418C227.715 34.293 226.613 33.7305 225.324 33.7305C224.574 33.7305 223.742 33.9414 222.828 34.3633C221.727 34.9258 220.953 35.6523 220.508 36.543L218.328 35.3828L219.664 23.043H232.355L232.039 25.9609H222.055L221.211 33.625C222.148 32.0781 223.707 31.293 225.887 31.2695C227.973 31.2461 229.648 31.8555 230.914 33.0977C232.18 34.3398 232.812 36.0273 232.812 38.1602C232.812 40.8555 231.887 43.0469 230.035 44.7344C228.184 46.3984 225.875 47.2305 223.109 47.2305Z" fill="black"/>
</svg>
