<svg width="418" height="405" viewBox="0 0 418 405" fill="none" xmlns="http://www.w3.org/2000/svg">
<rect x="55" y="16" width="336" height="300" rx="30" fill="#83369E"/>
<rect x="82" width="336" height="300" rx="30" fill="#FF4500"/>
<path d="M112.296 107C111.592 107 111 106.76 110.52 106.28C110.04 105.8 109.8 105.208 109.8 104.504V72.008C109.8 71.272 110.04 70.68 110.52 70.232C111 69.752 111.592 69.512 112.296 69.512H120.984C123.736 69.512 126.232 69.976 128.472 70.904C130.744 71.8 132.712 73.096 134.376 74.792C136.04 76.456 137.32 78.424 138.216 80.696C139.112 82.968 139.56 85.48 139.56 88.232C139.56 90.984 139.112 93.512 138.216 95.816C137.32 98.088 136.04 100.072 134.376 101.768C132.712 103.432 130.744 104.728 128.472 105.656C126.232 106.552 123.736 107 120.984 107H112.296ZM114.792 102.584H120.984C123.672 102.584 126.04 101.976 128.088 100.76C130.168 99.512 131.8 97.816 132.984 95.672C134.168 93.496 134.76 91.016 134.76 88.232C134.76 85.416 134.168 82.936 132.984 80.792C131.8 78.648 130.168 76.968 128.088 75.752C126.04 74.536 123.672 73.928 120.984 73.928H114.792V102.584ZM159.25 107.192C156.594 107.192 154.226 106.632 152.146 105.512C150.098 104.36 148.482 102.792 147.298 100.808C146.146 98.792 145.57 96.488 145.57 93.896C145.57 91.272 146.114 88.968 147.202 86.984C148.322 84.968 149.858 83.4 151.81 82.28C153.762 81.128 156.002 80.552 158.53 80.552C161.026 80.552 163.17 81.112 164.962 82.232C166.754 83.32 168.114 84.84 169.042 86.792C170.002 88.712 170.482 90.936 170.482 93.464C170.482 94.072 170.274 94.584 169.858 95C169.442 95.384 168.914 95.576 168.274 95.576H150.034C150.386 97.784 151.394 99.592 153.058 101C154.754 102.376 156.818 103.064 159.25 103.064C160.242 103.064 161.25 102.888 162.274 102.536C163.33 102.152 164.178 101.72 164.818 101.24C165.298 100.888 165.81 100.712 166.354 100.712C166.93 100.68 167.426 100.84 167.842 101.192C168.386 101.672 168.674 102.2 168.706 102.776C168.738 103.352 168.482 103.848 167.938 104.264C166.85 105.128 165.49 105.832 163.858 106.376C162.258 106.92 160.722 107.192 159.25 107.192ZM158.53 84.68C156.162 84.68 154.258 85.336 152.818 86.648C151.378 87.96 150.466 89.656 150.082 91.736H166.066C165.778 89.688 164.994 88.008 163.714 86.696C162.434 85.352 160.706 84.68 158.53 84.68ZM186.278 107.192C184.038 107.192 181.958 106.856 180.038 106.184C178.15 105.48 176.678 104.6 175.622 103.544C175.142 103.032 174.934 102.456 174.998 101.816C175.094 101.144 175.414 100.6 175.958 100.184C176.598 99.672 177.222 99.464 177.83 99.56C178.47 99.624 179.014 99.896 179.462 100.376C180.006 100.984 180.87 101.56 182.054 102.104C183.27 102.616 184.614 102.872 186.086 102.872C187.942 102.872 189.35 102.568 190.31 101.96C191.302 101.352 191.814 100.568 191.846 99.608C191.878 98.648 191.414 97.816 190.454 97.112C189.526 96.408 187.814 95.832 185.318 95.384C182.086 94.744 179.734 93.784 178.262 92.504C176.822 91.224 176.102 89.656 176.102 87.8C176.102 86.168 176.582 84.824 177.542 83.768C178.502 82.68 179.734 81.88 181.238 81.368C182.742 80.824 184.31 80.552 185.942 80.552C188.054 80.552 189.926 80.888 191.558 81.56C193.19 82.232 194.486 83.16 195.446 84.344C195.894 84.856 196.102 85.4 196.07 85.976C196.038 86.52 195.766 86.984 195.254 87.368C194.742 87.72 194.134 87.832 193.43 87.704C192.726 87.576 192.134 87.288 191.654 86.84C190.854 86.072 189.99 85.544 189.062 85.256C188.134 84.968 187.062 84.824 185.846 84.824C184.438 84.824 183.238 85.064 182.246 85.544C181.286 86.024 180.806 86.728 180.806 87.656C180.806 88.232 180.95 88.76 181.238 89.24C181.558 89.688 182.166 90.104 183.062 90.488C183.958 90.84 185.27 91.192 186.998 91.544C190.614 92.248 193.11 93.256 194.486 94.568C195.894 95.848 196.598 97.432 196.598 99.32C196.598 100.792 196.198 102.12 195.398 103.304C194.63 104.488 193.478 105.432 191.942 106.136C190.438 106.84 188.55 107.192 186.278 107.192ZM214.693 107.192C212.133 107.192 209.845 106.616 207.829 105.464C205.845 104.28 204.277 102.696 203.125 100.712C202.005 98.696 201.445 96.424 201.445 93.896C201.445 91.304 202.005 89 203.125 86.984C204.245 84.968 205.781 83.4 207.733 82.28C209.685 81.128 211.925 80.552 214.453 80.552C218.229 80.552 221.365 81.992 223.861 84.872C224.309 85.384 224.469 85.912 224.341 86.456C224.213 87 223.861 87.48 223.285 87.896C222.837 88.216 222.341 88.328 221.797 88.232C221.253 88.104 220.757 87.816 220.309 87.368C218.741 85.704 216.789 84.872 214.453 84.872C211.989 84.872 209.989 85.704 208.453 87.368C206.917 89 206.149 91.176 206.149 93.896C206.149 95.624 206.501 97.16 207.205 98.504C207.941 99.848 208.949 100.92 210.229 101.72C211.509 102.488 212.997 102.872 214.693 102.872C216.869 102.872 218.629 102.312 219.973 101.192C220.485 100.776 221.013 100.552 221.557 100.52C222.101 100.456 222.581 100.6 222.997 100.952C223.541 101.4 223.845 101.912 223.909 102.488C223.973 103.032 223.781 103.528 223.333 103.976C221.029 106.12 218.149 107.192 214.693 107.192ZM242.657 107.24C240.449 107.24 238.465 106.776 236.705 105.848C234.977 104.888 233.601 103.496 232.577 101.672C231.585 99.848 231.089 97.608 231.089 94.952V83.144C231.089 82.44 231.313 81.864 231.761 81.416C232.241 80.936 232.833 80.696 233.537 80.696C234.241 80.696 234.817 80.936 235.265 81.416C235.745 81.864 235.985 82.44 235.985 83.144V94.952C235.985 97.672 236.705 99.672 238.145 100.952C239.617 102.2 241.441 102.824 243.617 102.824C244.993 102.824 246.209 102.552 247.265 102.008C248.353 101.464 249.217 100.728 249.857 99.8C250.497 98.872 250.817 97.832 250.817 96.68V83.144C250.817 82.408 251.041 81.816 251.489 81.368C251.969 80.92 252.561 80.696 253.265 80.696C254.001 80.696 254.593 80.92 255.041 81.368C255.489 81.816 255.713 82.408 255.713 83.144V104.552C255.713 105.256 255.489 105.848 255.041 106.328C254.593 106.776 254.001 107 253.265 107C252.561 107 251.969 106.776 251.489 106.328C251.041 105.848 250.817 105.256 250.817 104.552V104.024C249.825 105.016 248.625 105.8 247.217 106.376C245.809 106.952 244.289 107.24 242.657 107.24ZM276.672 107.192C274.016 107.192 271.648 106.632 269.568 105.512C267.52 104.36 265.904 102.792 264.72 100.808C263.568 98.792 262.992 96.488 262.992 93.896C262.992 91.272 263.536 88.968 264.624 86.984C265.744 84.968 267.28 83.4 269.232 82.28C271.184 81.128 273.424 80.552 275.952 80.552C278.448 80.552 280.592 81.112 282.384 82.232C284.176 83.32 285.536 84.84 286.464 86.792C287.424 88.712 287.904 90.936 287.904 93.464C287.904 94.072 287.696 94.584 287.28 95C286.864 95.384 286.336 95.576 285.696 95.576H267.456C267.808 97.784 268.816 99.592 270.48 101C272.176 102.376 274.24 103.064 276.672 103.064C277.664 103.064 278.672 102.888 279.696 102.536C280.752 102.152 281.6 101.72 282.24 101.24C282.72 100.888 283.232 100.712 283.776 100.712C284.352 100.68 284.848 100.84 285.264 101.192C285.808 101.672 286.096 102.2 286.128 102.776C286.16 103.352 285.904 103.848 285.36 104.264C284.272 105.128 282.912 105.832 281.28 106.376C279.68 106.92 278.144 107.192 276.672 107.192ZM275.952 84.68C273.584 84.68 271.68 85.336 270.24 86.648C268.8 87.96 267.888 89.656 267.504 91.736H283.488C283.2 89.688 282.416 88.008 281.136 86.696C279.856 85.352 278.128 84.68 275.952 84.68ZM296.596 107.048C295.892 107.048 295.3 106.824 294.82 106.376C294.372 105.896 294.148 105.304 294.148 104.6V83.192C294.148 82.456 294.372 81.864 294.82 81.416C295.3 80.968 295.892 80.744 296.596 80.744C297.332 80.744 297.924 80.968 298.372 81.416C298.82 81.864 299.044 82.456 299.044 83.192V83.72C300.036 82.728 301.236 81.944 302.644 81.368C304.052 80.792 305.572 80.504 307.204 80.504C309.412 80.504 311.38 80.984 313.108 81.944C314.868 82.872 316.244 84.248 317.236 86.072C318.26 87.896 318.772 90.136 318.772 92.792V104.6C318.772 105.304 318.532 105.896 318.052 106.376C317.604 106.824 317.028 107.048 316.324 107.048C315.62 107.048 315.028 106.824 314.548 106.376C314.1 105.896 313.876 105.304 313.876 104.6V92.792C313.876 90.072 313.14 88.088 311.668 86.84C310.228 85.56 308.42 84.92 306.244 84.92C304.9 84.92 303.684 85.192 302.596 85.736C301.508 86.28 300.644 87.016 300.004 87.944C299.364 88.84 299.044 89.88 299.044 91.064V104.6C299.044 105.304 298.82 105.896 298.372 106.376C297.924 106.824 297.332 107.048 296.596 107.048ZM336.419 107C334.819 107 333.379 106.6 332.099 105.8C330.819 104.968 329.811 103.848 329.075 102.44C328.339 101.032 327.971 99.448 327.971 97.688V85.832H325.763C325.091 85.832 324.547 85.64 324.131 85.256C323.715 84.872 323.507 84.392 323.507 83.816C323.507 83.176 323.715 82.664 324.131 82.28C324.547 81.896 325.091 81.704 325.763 81.704H327.971V74.792C327.971 74.088 328.195 73.512 328.643 73.064C329.091 72.616 329.667 72.392 330.371 72.392C331.075 72.392 331.651 72.616 332.099 73.064C332.547 73.512 332.771 74.088 332.771 74.792V81.704H336.851C337.523 81.704 338.067 81.896 338.483 82.28C338.899 82.664 339.107 83.176 339.107 83.816C339.107 84.392 338.899 84.872 338.483 85.256C338.067 85.64 337.523 85.832 336.851 85.832H332.771V97.688C332.771 98.968 333.123 100.04 333.827 100.904C334.531 101.768 335.395 102.2 336.419 102.2H338.051C338.627 102.2 339.107 102.424 339.491 102.872C339.907 103.32 340.115 103.896 340.115 104.6C340.115 105.304 339.843 105.88 339.299 106.328C338.787 106.776 338.115 107 337.283 107H336.419ZM358.037 107.192C355.445 107.192 353.157 106.632 351.173 105.512C349.189 104.36 347.621 102.792 346.469 100.808C345.349 98.792 344.789 96.488 344.789 93.896C344.789 91.272 345.349 88.968 346.469 86.984C347.621 84.968 349.189 83.4 351.173 82.28C353.157 81.128 355.445 80.552 358.037 80.552C360.597 80.552 362.869 81.128 364.853 82.28C366.837 83.4 368.389 84.968 369.509 86.984C370.661 88.968 371.237 91.272 371.237 93.896C371.237 96.488 370.677 98.792 369.557 100.808C368.437 102.792 366.885 104.36 364.901 105.512C362.917 106.632 360.629 107.192 358.037 107.192ZM358.037 102.872C359.701 102.872 361.173 102.488 362.453 101.72C363.733 100.952 364.725 99.896 365.429 98.552C366.165 97.208 366.533 95.656 366.533 93.896C366.533 92.136 366.165 90.584 365.429 89.24C364.725 87.864 363.733 86.792 362.453 86.024C361.173 85.256 359.701 84.872 358.037 84.872C356.373 84.872 354.901 85.256 353.621 86.024C352.341 86.792 351.333 87.864 350.597 89.24C349.861 90.584 349.493 92.136 349.493 93.896C349.493 95.656 349.861 97.208 350.597 98.552C351.333 99.896 352.341 100.952 353.621 101.72C354.901 102.488 356.373 102.872 358.037 102.872ZM388.075 107.192C385.835 107.192 383.755 106.856 381.835 106.184C379.947 105.48 378.475 104.6 377.419 103.544C376.939 103.032 376.731 102.456 376.795 101.816C376.891 101.144 377.211 100.6 377.755 100.184C378.395 99.672 379.019 99.464 379.627 99.56C380.267 99.624 380.811 99.896 381.259 100.376C381.803 100.984 382.667 101.56 383.851 102.104C385.067 102.616 386.411 102.872 387.883 102.872C389.739 102.872 391.147 102.568 392.107 101.96C393.099 101.352 393.611 100.568 393.643 99.608C393.675 98.648 393.211 97.816 392.251 97.112C391.323 96.408 389.611 95.832 387.115 95.384C383.883 94.744 381.531 93.784 380.059 92.504C378.619 91.224 377.899 89.656 377.899 87.8C377.899 86.168 378.379 84.824 379.339 83.768C380.299 82.68 381.531 81.88 383.035 81.368C384.539 80.824 386.107 80.552 387.739 80.552C389.851 80.552 391.723 80.888 393.355 81.56C394.987 82.232 396.283 83.16 397.243 84.344C397.691 84.856 397.899 85.4 397.867 85.976C397.835 86.52 397.563 86.984 397.051 87.368C396.539 87.72 395.931 87.832 395.227 87.704C394.523 87.576 393.931 87.288 393.451 86.84C392.651 86.072 391.787 85.544 390.859 85.256C389.931 84.968 388.859 84.824 387.643 84.824C386.235 84.824 385.035 85.064 384.043 85.544C383.083 86.024 382.603 86.728 382.603 87.656C382.603 88.232 382.747 88.76 383.035 89.24C383.355 89.688 383.963 90.104 384.859 90.488C385.755 90.84 387.067 91.192 388.795 91.544C392.411 92.248 394.907 93.256 396.283 94.568C397.691 95.848 398.395 97.432 398.395 99.32C398.395 100.792 397.995 102.12 397.195 103.304C396.427 104.488 395.275 105.432 393.739 106.136C392.235 106.84 390.347 107.192 388.075 107.192ZM121.704 161.48C119.656 161.48 117.704 161.16 115.848 160.52C113.992 159.88 112.376 158.984 111 157.832C109.624 156.68 108.616 155.352 107.976 153.848C107.656 153.176 107.656 152.552 107.976 151.976C108.328 151.4 108.904 151.032 109.704 150.872C110.28 150.744 110.84 150.84 111.384 151.16C111.96 151.448 112.392 151.896 112.68 152.504C113.064 153.304 113.688 154.04 114.552 154.712C115.448 155.384 116.52 155.928 117.768 156.344C119.016 156.76 120.328 156.968 121.704 156.968C123.24 156.968 124.648 156.728 125.928 156.248C127.24 155.768 128.296 155.08 129.096 154.184C129.896 153.256 130.296 152.12 130.296 150.776C130.296 149.08 129.624 147.56 128.28 146.216C126.968 144.872 124.792 144.04 121.752 143.72C117.784 143.336 114.664 142.168 112.392 140.216C110.12 138.264 108.984 135.848 108.984 132.968C108.984 130.856 109.576 129.064 110.76 127.592C111.944 126.12 113.544 125 115.56 124.232C117.608 123.464 119.88 123.08 122.376 123.08C125.288 123.08 127.672 123.672 129.528 124.856C131.384 126.04 132.92 127.608 134.136 129.56C134.584 130.264 134.76 130.936 134.664 131.576C134.6 132.184 134.296 132.664 133.752 133.016C133.144 133.4 132.488 133.48 131.784 133.256C131.08 133.032 130.552 132.616 130.2 132.008C129.4 130.632 128.36 129.56 127.08 128.792C125.832 128.024 124.216 127.624 122.232 127.592C119.864 127.56 117.88 128.008 116.28 128.936C114.68 129.832 113.88 131.224 113.88 133.112C113.88 134.072 114.12 135 114.6 135.896C115.112 136.76 116.024 137.512 117.336 138.152C118.68 138.792 120.6 139.24 123.096 139.496C126.904 139.88 129.864 141.048 131.976 143C134.12 144.92 135.192 147.464 135.192 150.632C135.192 152.456 134.808 154.04 134.04 155.384C133.304 156.728 132.296 157.864 131.016 158.792C129.768 159.688 128.328 160.36 126.696 160.808C125.096 161.256 123.432 161.48 121.704 161.48ZM144.815 161.048C144.111 161.048 143.519 160.824 143.039 160.376C142.591 159.896 142.367 159.304 142.367 158.6V137.192C142.367 136.456 142.591 135.864 143.039 135.416C143.519 134.968 144.111 134.744 144.815 134.744C145.551 134.744 146.143 134.968 146.591 135.416C147.039 135.864 147.263 136.456 147.263 137.192V137.72C148.255 136.728 149.455 135.944 150.863 135.368C152.271 134.792 153.791 134.504 155.423 134.504C157.631 134.504 159.599 134.984 161.327 135.944C163.087 136.872 164.463 138.248 165.455 140.072C166.479 141.896 166.991 144.136 166.991 146.792V158.6C166.991 159.304 166.751 159.896 166.271 160.376C165.823 160.824 165.247 161.048 164.543 161.048C163.839 161.048 163.247 160.824 162.767 160.376C162.319 159.896 162.095 159.304 162.095 158.6V146.792C162.095 144.072 161.359 142.088 159.887 140.84C158.447 139.56 156.639 138.92 154.463 138.92C153.119 138.92 151.903 139.192 150.815 139.736C149.727 140.28 148.863 141.016 148.223 141.944C147.583 142.84 147.263 143.88 147.263 145.064V158.6C147.263 159.304 147.039 159.896 146.591 160.376C146.143 160.824 145.551 161.048 144.815 161.048ZM144.815 151.448C144.111 151.448 143.519 151.224 143.039 150.776C142.591 150.296 142.367 149.704 142.367 149V125.96C142.367 125.224 142.591 124.632 143.039 124.184C143.519 123.736 144.111 123.512 144.815 123.512C145.551 123.512 146.143 123.736 146.591 124.184C147.039 124.632 147.263 125.224 147.263 125.96V149C147.263 149.704 147.039 150.296 146.591 150.776C146.143 151.224 145.551 151.448 144.815 151.448ZM187.037 161.192C184.445 161.192 182.157 160.632 180.173 159.512C178.189 158.36 176.621 156.792 175.469 154.808C174.349 152.792 173.789 150.488 173.789 147.896C173.789 145.272 174.349 142.968 175.469 140.984C176.621 138.968 178.189 137.4 180.173 136.28C182.157 135.128 184.445 134.552 187.037 134.552C189.597 134.552 191.869 135.128 193.853 136.28C195.837 137.4 197.389 138.968 198.509 140.984C199.661 142.968 200.237 145.272 200.237 147.896C200.237 150.488 199.677 152.792 198.557 154.808C197.437 156.792 195.885 158.36 193.901 159.512C191.917 160.632 189.629 161.192 187.037 161.192ZM187.037 156.872C188.701 156.872 190.173 156.488 191.453 155.72C192.733 154.952 193.725 153.896 194.429 152.552C195.165 151.208 195.533 149.656 195.533 147.896C195.533 146.136 195.165 144.584 194.429 143.24C193.725 141.864 192.733 140.792 191.453 140.024C190.173 139.256 188.701 138.872 187.037 138.872C185.373 138.872 183.901 139.256 182.621 140.024C181.341 140.792 180.333 141.864 179.597 143.24C178.861 144.584 178.493 146.136 178.493 147.896C178.493 149.656 178.861 151.208 179.597 152.552C180.333 153.896 181.341 154.952 182.621 155.72C183.901 156.488 185.373 156.872 187.037 156.872ZM209.971 172.232C209.267 172.232 208.675 171.992 208.195 171.512C207.747 171.064 207.523 170.488 207.523 169.784V147.896C207.555 145.368 208.147 143.096 209.299 141.08C210.451 139.064 212.019 137.48 214.003 136.328C215.987 135.144 218.227 134.552 220.723 134.552C223.251 134.552 225.507 135.144 227.491 136.328C229.475 137.48 231.043 139.064 232.195 141.08C233.379 143.096 233.971 145.368 233.971 147.896C233.971 150.424 233.427 152.696 232.339 154.712C231.283 156.696 229.827 158.28 227.971 159.464C226.115 160.616 224.019 161.192 221.683 161.192C219.795 161.192 218.051 160.808 216.451 160.04C214.883 159.24 213.539 158.168 212.419 156.824V169.784C212.419 170.488 212.195 171.064 211.747 171.512C211.299 171.992 210.707 172.232 209.971 172.232ZM220.723 156.872C222.355 156.872 223.811 156.488 225.091 155.72C226.371 154.92 227.379 153.848 228.115 152.504C228.883 151.128 229.267 149.592 229.267 147.896C229.267 146.168 228.883 144.632 228.115 143.288C227.379 141.912 226.371 140.84 225.091 140.072C223.811 139.272 222.355 138.872 220.723 138.872C219.123 138.872 217.667 139.272 216.355 140.072C215.075 140.84 214.067 141.912 213.331 143.288C212.595 144.632 212.227 146.168 212.227 147.896C212.227 149.592 212.595 151.128 213.331 152.504C214.067 153.848 215.075 154.92 216.355 155.72C217.667 156.488 219.123 156.872 220.723 156.872ZM243.721 172.232C243.017 172.232 242.425 171.992 241.945 171.512C241.497 171.064 241.273 170.488 241.273 169.784V147.896C241.305 145.368 241.897 143.096 243.049 141.08C244.201 139.064 245.769 137.48 247.753 136.328C249.737 135.144 251.977 134.552 254.473 134.552C257.001 134.552 259.257 135.144 261.241 136.328C263.225 137.48 264.793 139.064 265.945 141.08C267.129 143.096 267.721 145.368 267.721 147.896C267.721 150.424 267.177 152.696 266.089 154.712C265.033 156.696 263.577 158.28 261.721 159.464C259.865 160.616 257.769 161.192 255.433 161.192C253.545 161.192 251.801 160.808 250.201 160.04C248.633 159.24 247.289 158.168 246.169 156.824V169.784C246.169 170.488 245.945 171.064 245.497 171.512C245.049 171.992 244.457 172.232 243.721 172.232ZM254.473 156.872C256.105 156.872 257.561 156.488 258.841 155.72C260.121 154.92 261.129 153.848 261.865 152.504C262.633 151.128 263.017 149.592 263.017 147.896C263.017 146.168 262.633 144.632 261.865 143.288C261.129 141.912 260.121 140.84 258.841 140.072C257.561 139.272 256.105 138.872 254.473 138.872C252.873 138.872 251.417 139.272 250.105 140.072C248.825 140.84 247.817 141.912 247.081 143.288C246.345 144.632 245.977 146.168 245.977 147.896C245.977 149.592 246.345 151.128 247.081 152.504C247.817 153.848 248.825 154.92 250.105 155.72C251.417 156.488 252.873 156.872 254.473 156.872ZM277.951 161C277.247 161 276.655 160.776 276.175 160.328C275.727 159.848 275.503 159.256 275.503 158.552V137.192C275.503 136.456 275.727 135.864 276.175 135.416C276.655 134.968 277.247 134.744 277.951 134.744C278.687 134.744 279.279 134.968 279.727 135.416C280.175 135.864 280.399 136.456 280.399 137.192V158.552C280.399 159.256 280.175 159.848 279.727 160.328C279.279 160.776 278.687 161 277.951 161ZM277.951 130.472C277.087 130.472 276.335 130.168 275.695 129.56C275.087 128.92 274.783 128.168 274.783 127.304C274.783 126.44 275.087 125.704 275.695 125.096C276.335 124.456 277.087 124.136 277.951 124.136C278.815 124.136 279.551 124.456 280.159 125.096C280.799 125.704 281.119 126.44 281.119 127.304C281.119 128.168 280.799 128.92 280.159 129.56C279.551 130.168 278.815 130.472 277.951 130.472ZM291.956 161.048C291.252 161.048 290.66 160.824 290.18 160.376C289.732 159.896 289.508 159.304 289.508 158.6V137.192C289.508 136.456 289.732 135.864 290.18 135.416C290.66 134.968 291.252 134.744 291.956 134.744C292.692 134.744 293.284 134.968 293.732 135.416C294.18 135.864 294.404 136.456 294.404 137.192V137.72C295.396 136.728 296.596 135.944 298.004 135.368C299.412 134.792 300.932 134.504 302.564 134.504C304.772 134.504 306.74 134.984 308.468 135.944C310.228 136.872 311.604 138.248 312.596 140.072C313.62 141.896 314.132 144.136 314.132 146.792V158.6C314.132 159.304 313.892 159.896 313.411 160.376C312.964 160.824 312.388 161.048 311.684 161.048C310.98 161.048 310.388 160.824 309.908 160.376C309.46 159.896 309.236 159.304 309.236 158.6V146.792C309.236 144.072 308.5 142.088 307.028 140.84C305.588 139.56 303.78 138.92 301.604 138.92C300.26 138.92 299.044 139.192 297.956 139.736C296.868 140.28 296.004 141.016 295.364 141.944C294.724 142.84 294.404 143.88 294.404 145.064V158.6C294.404 159.304 294.18 159.896 293.732 160.376C293.284 160.824 292.692 161.048 291.956 161.048ZM333.17 161.192C330.77 161.192 328.642 160.632 326.786 159.512C324.962 158.36 323.522 156.792 322.466 154.808C321.41 152.792 320.882 150.488 320.882 147.896C320.882 145.272 321.442 142.968 322.562 140.984C323.714 138.968 325.282 137.4 327.266 136.28C329.25 135.128 331.538 134.552 334.13 134.552C336.69 134.552 338.962 135.128 340.946 136.28C342.93 137.4 344.482 138.968 345.602 140.984C346.754 142.968 347.33 145.272 347.33 147.896V158.264C347.33 160.792 346.77 163.08 345.65 165.128C344.53 167.208 342.962 168.856 340.946 170.072C338.962 171.288 336.658 171.896 334.034 171.896C331.762 171.896 329.634 171.448 327.65 170.552C325.666 169.656 323.986 168.344 322.61 166.616C322.194 166.072 322.034 165.512 322.13 164.936C322.258 164.36 322.578 163.896 323.09 163.544C323.666 163.16 324.258 163.032 324.866 163.16C325.506 163.288 326.018 163.608 326.402 164.12C327.266 165.208 328.354 166.056 329.666 166.664C330.978 167.272 332.466 167.576 334.13 167.576C335.666 167.576 337.074 167.208 338.354 166.472C339.666 165.736 340.706 164.648 341.474 163.208C342.242 161.768 342.626 160.008 342.626 157.928V155.576C341.634 157.304 340.322 158.68 338.69 159.704C337.058 160.696 335.218 161.192 333.17 161.192ZM334.13 156.872C335.794 156.872 337.266 156.488 338.546 155.72C339.826 154.952 340.818 153.896 341.522 152.552C342.258 151.208 342.626 149.656 342.626 147.896C342.626 146.136 342.258 144.584 341.522 143.24C340.818 141.864 339.826 140.792 338.546 140.024C337.266 139.256 335.794 138.872 334.13 138.872C332.466 138.872 330.994 139.256 329.714 140.024C328.434 140.792 327.426 141.864 326.69 143.24C325.954 144.584 325.586 146.136 325.586 147.896C325.586 149.656 325.954 151.208 326.69 152.552C327.426 153.896 328.434 154.952 329.714 155.72C330.994 156.488 332.466 156.872 334.13 156.872ZM365.609 161C363.305 161 361.225 160.472 359.369 159.416C357.545 158.328 356.089 156.856 355.001 155C353.945 153.144 353.417 151.064 353.417 148.76C353.417 148.056 353.641 147.48 354.089 147.032C354.537 146.552 355.113 146.312 355.817 146.312C356.521 146.312 357.113 146.552 357.593 147.032C358.073 147.48 358.313 148.056 358.313 148.76C358.313 150.136 358.633 151.384 359.273 152.504C359.913 153.624 360.777 154.504 361.865 155.144C362.985 155.784 364.233 156.104 365.609 156.104C367.017 156.104 368.265 155.784 369.353 155.144C370.473 154.504 371.353 153.624 371.993 152.504C372.633 151.384 372.953 150.136 372.953 148.76C372.953 147.352 372.633 146.104 371.993 145.016C371.353 143.896 370.473 143.016 369.353 142.376C368.265 141.736 367.017 141.416 365.609 141.416H357.593C356.889 141.416 356.313 141.192 355.865 140.744C355.417 140.264 355.193 139.672 355.193 138.968V126.008C355.193 125.304 355.417 124.712 355.865 124.232C356.313 123.752 356.889 123.512 357.593 123.512H373.625C374.297 123.512 374.873 123.768 375.353 124.28C375.833 124.76 376.073 125.336 376.073 126.008C376.073 126.648 375.833 127.208 375.353 127.688C374.905 128.168 374.329 128.408 373.625 128.408H360.041V136.52H365.609C367.945 136.52 370.025 137.064 371.849 138.152C373.705 139.208 375.161 140.664 376.217 142.52C377.305 144.344 377.849 146.424 377.849 148.76C377.849 151.064 377.305 153.144 376.217 155C375.161 156.856 373.705 158.328 371.849 159.416C370.025 160.472 367.945 161 365.609 161Z" fill="white"/>
<path d="M216.293 225.121C212.559 229.027 207.197 233.008 200.316 236.998C198.848 237.851 197.31 238.704 195.702 239.558C190.013 242.569 183.583 245.525 176.577 248.352C174.487 249.197 172.582 249.933 170.933 250.552C167.048 252.007 164.573 252.827 164.427 252.873C164.073 252.99 163.706 253.045 163.34 253.045C162.729 253.045 162.124 252.886 161.594 252.576C160.741 252.078 160.175 251.242 160.051 250.305C159.534 246.45 159.592 242.485 160.215 238.525C160.484 236.81 162.177 235.635 163.98 235.886C165.793 236.141 167.043 237.739 166.774 239.453C166.451 241.481 166.305 243.51 166.331 245.513C167.003 245.27 167.75 244.995 168.559 244.693C170.15 244.091 171.98 243.385 173.973 242.582C180.762 239.842 186.981 236.986 192.461 234.084C193.844 233.348 195.348 232.524 196.894 231.62C206.998 225.728 219.219 216.561 215.705 208.176C213.985 204.069 210.954 201.773 206.702 201.347C196.991 200.372 183.224 208.77 174.636 220.89L172.072 225.004C171.144 226.498 169.111 226.995 167.533 226.117C165.955 225.239 165.429 223.315 166.358 221.822L168.97 217.627C169 217.577 169.036 217.527 169.071 217.476C179.086 203.291 195.21 193.882 207.4 195.107C214.105 195.781 219.241 199.603 221.866 205.863C224.466 212.061 222.587 218.543 216.293 225.121V225.121Z" fill="#DB5C6E"/>
<path d="M163.339 253.046C162.729 253.046 162.122 252.887 161.591 252.575C160.742 252.076 160.176 251.241 160.05 250.303C159.534 246.447 159.589 242.484 160.214 238.525C160.485 236.811 162.177 235.632 163.982 235.886C165.793 236.142 167.041 237.738 166.771 239.451C166.451 241.481 166.305 243.508 166.334 245.513C168.341 244.783 170.974 243.791 173.976 242.581C180.763 239.844 186.982 236.985 192.46 234.083C202.88 228.559 219.757 217.848 215.705 208.176C213.985 204.071 210.955 201.772 206.703 201.345C196.99 200.371 183.223 208.768 174.634 220.888L172.073 225.005C171.143 226.498 169.112 226.995 167.534 226.117C165.957 225.239 165.431 223.316 166.359 221.823L168.97 217.628C169.001 217.577 169.035 217.526 169.07 217.476C179.086 203.29 195.211 193.881 207.403 195.107C214.106 195.78 219.243 199.6 221.868 205.864C224.465 212.062 222.589 218.541 216.293 225.121C211.761 229.859 204.832 234.715 195.7 239.556C190.015 242.568 183.58 245.527 176.575 248.351C169.576 251.175 164.634 252.805 164.427 252.873C164.073 252.989 163.705 253.046 163.339 253.046V253.046Z" fill="#83369E"/>
<path d="M197.033 304.605C198.816 302.624 200.055 300.25 200.609 297.703C202.571 288.66 205.265 265.341 192.209 231.768C190.556 227.514 187.008 224.157 182.512 222.593C147.03 210.239 122.383 212.789 112.829 214.648C110.135 215.168 107.625 216.341 105.535 218.032C66.4414 249.583 36.886 277.232 4.00441 313.133C-1.13286 318.741 -1.35456 327.023 3.5092 332.843C24.7621 358.264 48.8218 381.029 75.6889 401.139C81.8406 405.741 90.5924 405.531 96.5194 400.67C134.465 369.56 163.683 341.593 197.033 304.605V304.605ZM154.269 258.491C149.26 253.752 149.26 246.065 154.269 241.326C159.279 236.586 167.402 236.586 172.411 241.326C177.421 246.066 177.42 253.752 172.411 258.492C167.402 263.231 159.278 263.231 154.269 258.491Z" fill="#FFD064"/>
<path d="M112.828 214.648C110.132 215.17 107.625 216.342 105.535 218.031C66.4374 249.583 36.8856 277.235 4.00091 313.133C-1.13505 318.74 -1.35501 327.025 3.50744 332.844C3.87548 333.285 4.24743 333.727 4.61547 334.164C3.74089 329.712 5.2971 324.606 9.06981 320.578C43.0982 284.264 73.2868 255.975 112.788 223.277C114.897 221.524 117.359 220.229 119.943 219.533C127.241 217.551 143.614 214.423 166.352 217.755C139.541 211.036 120.858 213.086 112.828 214.648V214.648Z" fill="#FFC250"/>
<path d="M53.1106 332.747C52.523 332.191 52.04 331.517 51.7055 330.743C50.3588 327.626 51.9381 324.066 55.2326 322.792L134.507 292.131C137.801 290.857 141.562 292.35 142.91 295.468C144.257 298.585 142.678 302.145 139.383 303.419L60.1089 334.08C57.632 335.038 54.8911 334.432 53.1106 332.747V332.747Z" fill="#83369E"/>
<path d="M78.4476 291.664C70.2254 283.885 70.9784 270.514 80.1258 261.859C89.2732 253.203 103.404 252.491 111.627 260.271C119.849 268.051 119.096 281.421 109.949 290.077C100.802 298.732 86.6699 299.444 78.4476 291.664V291.664ZM102.512 268.894C99.37 265.921 93.2911 266.648 89.2388 270.482C85.1864 274.316 84.4181 280.068 87.5606 283.041C90.7035 286.015 96.782 285.288 100.834 281.454C104.887 277.619 105.655 271.868 102.512 268.894Z" fill="#83369E"/>
<path d="M81.0322 366.358C72.8099 358.579 73.5626 345.208 82.7099 336.553C91.8573 327.897 105.989 327.185 114.211 334.965C122.433 342.745 121.68 356.115 112.533 364.771C103.386 373.426 89.2544 374.138 81.0322 366.358V366.358ZM105.097 343.588C101.955 340.614 95.8761 341.341 91.8237 345.176C87.7714 349.01 87.0031 354.761 90.146 357.735C93.2885 360.708 99.3674 359.981 103.42 356.147C107.472 352.313 108.24 346.561 105.097 343.588V343.588Z" fill="#83369E"/>
<path d="M163.34 265.178C159.206 265.178 155.072 263.689 151.924 260.711C145.63 254.755 145.63 245.065 151.924 239.109C154.974 236.224 159.028 234.635 163.34 234.635C167.652 234.635 171.706 236.224 174.755 239.109C181.05 245.065 181.05 254.755 174.755 260.711C171.608 263.689 167.474 265.178 163.34 265.178ZM163.34 240.908C160.799 240.908 158.41 241.844 156.613 243.545C152.903 247.055 152.903 252.766 156.613 256.275C160.323 259.786 166.358 259.785 170.067 256.275C173.777 252.765 173.777 247.054 170.067 243.545C168.27 241.844 165.881 240.908 163.34 240.908V240.908Z" fill="#FFC250"/>
<path d="M200.316 236.998C198.848 237.851 197.31 238.704 195.702 239.558C190.013 242.569 183.583 245.525 176.577 248.352C174.487 249.197 172.582 249.933 170.933 250.552C169.748 248.808 168.926 246.822 168.56 244.693C170.151 244.091 171.98 243.384 173.974 242.582C180.763 239.842 186.982 236.986 192.462 234.084C193.845 233.348 195.348 232.524 196.895 231.62C198.397 233.159 199.569 234.982 200.316 236.998V236.998Z" fill="#83369E"/>
<g filter="url(#filter0_d)">
<path d="M315.367 285C322.385 285 328.075 280.236 328.075 274.361C328.075 268.485 322.385 263.721 315.367 263.721C308.348 263.721 302.658 268.485 302.658 274.361C302.658 280.236 308.348 285 315.367 285Z" fill="#FFFBFB"/>
<path d="M352.454 263.721C345.435 263.721 339.746 268.485 339.746 274.361C339.746 280.236 345.435 285 352.454 285C359.472 285 365.162 280.236 365.162 274.361C365.162 268.485 359.472 263.721 352.454 263.721Z" fill="#FFFBFB"/>
<path d="M374.11 252.865H307.845L306.549 246.568H361.012C362.615 246.572 364.056 245.753 364.643 244.505L377.611 217.147C378.399 215.474 377.417 213.583 375.418 212.923C374.96 212.772 374.472 212.695 373.98 212.696H299.805L296.693 197.714C296.374 196.13 294.722 194.978 292.803 195H277.89C275.742 195 274 196.459 274 198.257C274 200.056 275.742 201.514 277.89 201.514H289.561L300.713 256.665C301.033 258.249 302.685 259.401 304.603 259.379H374.11C376.258 259.379 378 257.921 378 256.122C378 254.323 376.258 252.865 374.11 252.865Z" fill="#FFFBFB"/>
</g>
<defs>
<filter id="filter0_d" x="257" y="192" width="121" height="97.9999" filterUnits="userSpaceOnUse" color-interpolation-filters="sRGB">
<feFlood flood-opacity="0" result="BackgroundImageFix"/>
<feColorMatrix in="SourceAlpha" type="matrix" values="0 0 0 0 0 0 0 0 0 0 0 0 0 0 0 0 0 0 127 0"/>
<feOffset dx="-13" dy="1"/>
<feGaussianBlur stdDeviation="2"/>
<feColorMatrix type="matrix" values="0 0 0 0 0 0 0 0 0 0 0 0 0 0 0 0 0 0 0.25 0"/>
<feBlend mode="normal" in2="BackgroundImageFix" result="effect1_dropShadow"/>
<feBlend mode="normal" in="SourceGraphic" in2="effect1_dropShadow" result="shape"/>
</filter>
</defs>
</svg>
