<svg width="353" height="301" viewBox="0 0 353 301" fill="none" xmlns="http://www.w3.org/2000/svg">
<g clip-path="url(#clip0)">
<path opacity="0.18" d="M345.33 202.4C342.77 212.49 338.33 222.56 334.44 231.54C319.66 265.45 294.72 288.64 255.67 283.9C236.85 281.61 218.43 275.29 199.48 275.9C181.35 276.46 164.09 283.29 146.87 288.98C114.87 299.57 79.44 306.35 47.79 294.69C16.14 283.03 -8.46999 247.16 2.79001 215.36C11.55 190.54 38.94 173.89 41.79 147.73C45.54 113.73 5.30001 84.4 13.79 51.22C17.4 37.25 29.02 26.85 41.33 19.35C69.61 2.06 104.38 -3.65 136.87 2.23C167.77 7.78 193.48 33.8 224.62 35C244.7 35.76 264.02 24.35 284.02 26.23C308.76 28.62 326.9 50.53 338.47 72.54C342.194 79.411 345.31 86.5952 347.78 94.01C352.587 109.12 353.563 125.189 350.62 140.77C347.62 156.77 347.98 171.77 347.52 188.18C347.318 192.986 346.583 197.756 345.33 202.4Z" fill="#CCCCCC"/>
<path d="M131.02 267.19C129.8 267.57 128.43 268.19 128.12 269.4C131.96 271.84 136.71 272.4 141.25 272.28C145.79 272.16 150.32 271.36 154.87 271.33C160.87 271.33 167.63 272.4 172.45 268.76C170.309 267.404 167.851 266.632 165.32 266.52C166.21 260.92 134.58 266.08 131.02 267.19Z" fill="url(#paint0_linear)"/>
<path d="M53.93 200.48C52.31 200.48 50.07 201.3 50.47 202.87L124.4 208.87C133.1 209.58 141.81 210.28 150.55 210.28C163.75 210.28 176.89 208.66 190.06 207.9C202.46 207.19 214.88 207.24 227.29 207.3C238.78 207.36 252.91 209.43 264.07 206.42C265.75 205.97 267.44 204.62 267.33 202.89C267.28 202.09 266.86 201.26 267.17 200.52C267.35 200.157 267.636 199.857 267.99 199.66C270.28 198.25 273.2 199.35 275.84 199.93C280.042 200.843 284.43 200.286 288.27 198.35C288.99 198.051 289.603 197.542 290.03 196.89C290.234 196.561 290.307 196.167 290.237 195.787C290.167 195.406 289.958 195.065 289.65 194.83C289.339 194.676 288.997 194.598 288.65 194.6L266.02 192.84C265.184 192.711 264.33 192.786 263.53 193.06C262.64 193.45 262.69 194.49 261.97 194.92C260.8 195.61 258.14 195.24 256.8 195.32C253.37 195.51 249.94 195.7 246.5 195.87C239.653 196.197 232.793 196.473 225.92 196.7C211.92 197.17 197.85 197.45 183.82 197.7C156.07 198.15 128.31 198.39 100.57 199.46C85.02 200.04 69.48 200.14 53.93 200.48Z" fill="url(#paint1_linear)"/>
<path d="M110.78 46.41C109.479 45.958 108.057 45.9935 106.78 46.51C105.956 46.8039 105.203 47.2672 104.569 47.8701C103.935 48.4729 103.435 49.2019 103.1 50.01C103.093 50.1151 103.064 50.2175 103.015 50.3105C102.966 50.4034 102.897 50.4848 102.814 50.5492C102.731 50.6136 102.635 50.6594 102.532 50.6837C102.43 50.708 102.323 50.7101 102.22 50.69C100.765 50.6866 99.3603 51.2249 98.28 52.2C97.02 53.35 97.02 54.76 96.85 56.41C96.6437 56.3062 96.4159 56.2522 96.185 56.2522C95.954 56.2522 95.7263 56.3062 95.52 56.41C95.1081 56.6131 94.7329 56.8835 94.41 57.21C93.8583 57.653 93.4168 58.2177 93.12 58.86C92.72 59.95 93.17 61.15 93.19 62.31C93.197 62.362 93.1926 62.4149 93.1771 62.465C93.1615 62.515 93.1352 62.5611 93.1 62.6C93.0589 62.6176 93.0147 62.6267 92.97 62.6267C92.9253 62.6267 92.8811 62.6176 92.84 62.6C92.53 62.54 92.25 62.38 91.94 62.35C91.5773 62.3534 91.2272 62.4831 90.9498 62.7167C90.6724 62.9503 90.4851 63.2732 90.42 63.63C90.302 64.3463 90.3395 65.0795 90.53 65.78C90.7158 66.4809 90.695 67.2206 90.47 67.91C90.2303 68.3628 89.9159 68.7719 89.54 69.12C88.4554 70.1308 87.7496 71.4824 87.54 72.95C87.4811 73.6592 87.6722 74.3668 88.08 74.95C88.2895 75.238 88.57 75.4667 88.8942 75.6139C89.2185 75.7612 89.5753 75.8218 89.93 75.79C91.59 75.57 92.17 73.24 93.75 72.69C95.33 72.14 97.1 70.28 98.12 68.81C98.94 67.63 99.74 66.26 101.12 65.81C101.574 65.7135 102.012 65.5518 102.42 65.33C102.691 65.1182 102.916 64.8527 103.08 64.55C103.651 63.7075 104.093 62.7838 104.39 61.81C104.89 59.89 104.39 57.73 105.32 55.96C105.586 55.4523 105.955 55.0063 106.405 54.6513C106.855 54.2963 107.374 54.0403 107.93 53.9C108.4 53.78 108.93 53.75 109.36 53.62C109.904 53.463 110.418 53.2163 110.88 52.89C111.488 52.5402 112.012 52.0603 112.413 51.4847C112.814 50.909 113.083 50.2517 113.2 49.56C113.29 48.15 112.02 46.89 110.78 46.41Z" fill="#FF681C"/>
<path d="M114.87 48.78C115.37 48.9728 115.784 49.3376 116.039 49.8087C116.294 50.2798 116.372 50.8263 116.26 51.35C116.089 51.7735 115.834 52.1579 115.51 52.48L113.7 54.48L112.95 51.7C112.872 51.1783 112.614 50.7005 112.22 50.35C111.963 50.2026 111.671 50.1251 111.375 50.1251C111.079 50.1251 110.787 50.2026 110.53 50.35C110 50.62 109.53 51.04 109.06 51.35C108.93 51.43 108.75 51.52 108.61 51.44C108.47 51.36 108.45 51.07 108.52 50.87C109.38 48.49 112.67 47.83 114.87 48.78Z" fill="#FF681C"/>
<path d="M116.1 124.01C116.155 124.946 116.466 125.849 117 126.62C117.81 127.62 119.16 128.12 120.28 128.85C120.395 128.909 120.496 128.992 120.576 129.094C120.655 129.196 120.711 129.314 120.74 129.44C120.733 129.562 120.691 129.679 120.618 129.777C120.545 129.875 120.445 129.949 120.33 129.99C120.093 130.057 119.844 130.074 119.6 130.04C118.458 129.861 117.306 129.751 116.15 129.71C115.57 129.71 114.9 129.77 114.53 129.32C114.292 128.939 114.209 128.48 114.3 128.04C114.402 126.386 114.268 124.726 113.9 123.11C113.777 122.716 113.733 122.301 113.77 121.89C113.807 121.7 113.894 121.523 114.021 121.376C114.148 121.23 114.311 121.119 114.494 121.056C114.677 120.992 114.874 120.977 115.064 121.013C115.255 121.049 115.433 121.134 115.58 121.26C116.24 121.83 116.02 123.24 116.1 124.01Z" fill="#FCBDBA"/>
<path d="M97.6 130.2C97.4644 131.127 97.5818 132.074 97.94 132.94C98.53 134.13 99.76 134.84 100.71 135.78C100.813 135.859 100.896 135.96 100.954 136.076C101.011 136.193 101.04 136.32 101.04 136.45C101.011 136.568 100.946 136.674 100.855 136.754C100.764 136.835 100.651 136.885 100.53 136.9C100.286 136.925 100.04 136.894 99.81 136.81C98.7234 136.413 97.6149 136.08 96.49 135.81C95.92 135.71 95.25 135.61 94.98 135.11C94.8161 134.692 94.8161 134.228 94.98 133.81C95.4142 132.207 95.6162 130.55 95.58 128.89C95.5395 128.479 95.5802 128.065 95.7 127.67C95.7752 127.491 95.8958 127.336 96.0499 127.218C96.204 127.1 96.3861 127.025 96.5783 127C96.7704 126.975 96.9659 127 97.1451 127.074C97.3244 127.148 97.4812 127.267 97.6 127.42C98.17 128.09 97.67 129.43 97.6 130.2Z" fill="#FCBDBA"/>
<path d="M93.96 85.2C93.96 85.2 103.5 99.36 109.75 103.59C109.63 105.006 109.66 106.43 109.84 107.84C110.16 110.13 111.27 112.14 111.63 114.39L112.83 121.96C112.88 122.3 112.98 122.71 113.31 122.83C113.508 122.894 113.722 122.894 113.92 122.83L116.56 122.11C116.402 117.561 116.498 113.008 116.85 108.47C117.066 106.635 117.113 104.784 116.99 102.94C116.55 98.94 113.27 95.37 110.99 92.16C109.62 90.22 108.15 87.32 106.23 85.85C104.63 84.63 102.37 85.21 100.36 85.41C98.8526 85.5538 97.3318 85.4457 95.86 85.09C95.5591 84.9491 95.2278 84.8853 94.8961 84.9045C94.5643 84.9237 94.2426 85.0253 93.96 85.2Z" fill="#473F47"/>
<path d="M90.33 85.11C90.33 85.11 94.04 101.78 98.33 108C97.7066 109.28 97.2141 110.621 96.86 112C96.6232 113.129 96.486 114.277 96.45 115.43L95.59 129.35C96.9194 129.42 98.2504 129.25 99.52 128.85L104.4 116.58C105.332 114.625 105.882 112.511 106.02 110.35C106.02 106.17 102.02 90.91 101.55 90.14C100.5 88.41 98.19 88.14 96.25 87.58C94.7933 87.1682 93.4172 86.5122 92.18 85.64C91.57 85.26 91.02 84.89 90.33 85.11Z" fill="#473F47"/>
<path d="M124.58 72.13C126.613 73.0681 128.869 73.4147 131.09 73.13C131.741 72.9505 132.424 72.9164 133.09 73.03C132.8 73.44 132.52 74.03 132.93 74.38C133.056 74.4621 133.2 74.5103 133.35 74.52C133.889 74.5895 134.437 74.5312 134.95 74.35C135.192 74.23 135.46 74.1716 135.73 74.18C135.968 74.2392 136.173 74.3901 136.301 74.5999C136.428 74.8097 136.467 75.0614 136.41 75.3C136.268 75.7761 135.955 76.1825 135.53 76.44C134.843 76.8949 134.048 77.1587 133.225 77.2044C132.403 77.2501 131.583 77.076 130.85 76.7C130.43 76.47 130.04 76.18 129.61 75.95C128.783 75.573 127.908 75.3106 127.01 75.17C124.381 74.6258 121.797 73.8837 119.28 72.95C118.899 72.8593 118.54 72.6919 118.225 72.4581C117.911 72.2243 117.647 71.9289 117.45 71.59C116.94 70.33 117.88 68.22 119.38 69.04C121.12 70.05 122.69 71.35 124.58 72.13Z" fill="#FCBDBA"/>
<path d="M112.16 64.95C115.13 66.8913 118.442 68.2489 121.92 68.95C122.07 68.95 122.25 69.05 122.29 69.2C122.306 69.3021 122.281 69.4064 122.22 69.49C121.51 70.9196 120.612 72.2481 119.55 73.44C119.436 73.5913 119.289 73.7144 119.12 73.8C118.954 73.8487 118.78 73.8631 118.608 73.8425C118.436 73.8219 118.27 73.7666 118.12 73.68C115.873 72.78 113.673 71.78 111.52 70.68C109.604 69.8395 107.896 68.5863 106.52 67.01C105.834 66.192 105.427 65.1757 105.36 64.11C105.36 62.93 106.44 60.81 107.93 61.39C108.6 61.65 109.19 62.48 109.7 62.95C110.478 63.6664 111.3 64.3344 112.16 64.95Z" fill="#E8610D"/>
<path d="M112.16 64.95C115.13 66.8913 118.442 68.2489 121.92 68.95C122.07 68.95 122.25 69.05 122.29 69.2C122.306 69.3021 122.281 69.4064 122.22 69.49C121.51 70.9196 120.612 72.2481 119.55 73.44C119.436 73.5913 119.289 73.7144 119.12 73.8C118.954 73.8487 118.78 73.8631 118.608 73.8425C118.436 73.8219 118.27 73.7666 118.12 73.68C115.873 72.78 113.673 71.78 111.52 70.68C109.604 69.8395 107.896 68.5863 106.52 67.01C105.834 66.192 105.427 65.1757 105.36 64.11C105.36 62.93 106.44 60.81 107.93 61.39C108.6 61.65 109.19 62.48 109.7 62.95C110.478 63.6664 111.3 64.3344 112.16 64.95Z" fill="url(#paint2_linear)"/>
<path d="M154.02 58.99C154.554 59.6638 154.873 60.4828 154.935 61.3404C154.997 62.198 154.799 63.0544 154.368 63.798C153.936 64.5416 153.29 65.1379 152.515 65.5093C151.739 65.8806 150.87 66.0098 150.02 65.88C150.02 65.88 145.29 65.99 146.36 70.45L155.36 81.91L143.9 90.91C139.44 91.98 139.33 87.25 139.33 87.25C139.452 86.4009 139.317 85.5347 138.942 84.7631C138.567 83.9916 137.97 83.3501 137.227 82.9216C136.484 82.4931 135.629 82.2973 134.773 82.3594C133.918 82.4214 133.101 82.7386 132.427 83.2699C131.753 83.8011 131.255 84.5221 130.995 85.3397C130.735 86.1573 130.727 87.034 130.97 87.8565C131.214 88.679 131.699 89.4096 132.362 89.9539C133.025 90.4982 133.836 90.8312 134.69 90.91C138.76 92.25 137.18 96.21 137.18 96.21L125.72 105.21L102.43 75.64L113.78 66.64C118.24 65.57 118.35 70.3 118.35 70.3C118.244 71.0012 118.314 71.7179 118.553 72.3855C118.792 73.0531 119.194 73.6508 119.722 74.1247C120.249 74.5987 120.886 74.9341 121.576 75.1008C122.265 75.2675 122.985 75.2603 123.671 75.0798C124.357 74.8993 124.987 74.5512 125.505 74.0667C126.023 73.5823 126.413 72.9767 126.639 72.3044C126.865 71.6322 126.92 70.9143 126.8 70.2153C126.68 69.5163 126.388 68.8581 125.95 68.3C125.585 67.8414 125.131 67.4615 124.616 67.1831C124.1 66.9046 123.533 66.7335 122.95 66.68C118.92 65.35 120.5 61.35 120.5 61.35L132.07 52.22L141.07 63.69C141.07 63.69 145.07 65.27 146.37 61.2C146.456 60.3477 146.795 59.5406 147.343 58.8827C147.892 58.2248 148.625 57.7461 149.448 57.5084C150.271 57.2707 151.146 57.2847 151.961 57.5488C152.776 57.8128 153.493 58.3148 154.02 58.99Z" fill="#FF4500"/>
<path d="M154.02 58.99C154.554 59.6638 154.873 60.4828 154.935 61.3404C154.997 62.198 154.799 63.0544 154.368 63.798C153.936 64.5416 153.29 65.1379 152.515 65.5093C151.739 65.8806 150.87 66.0098 150.02 65.88C150.02 65.88 145.29 65.99 146.36 70.45L155.36 81.91L143.9 90.91C139.44 91.98 139.33 87.25 139.33 87.25C139.452 86.4009 139.317 85.5347 138.942 84.7631C138.567 83.9916 137.97 83.3501 137.227 82.9216C136.484 82.4931 135.629 82.2973 134.773 82.3594C133.918 82.4214 133.101 82.7386 132.427 83.2699C131.753 83.8011 131.255 84.5221 130.995 85.3397C130.735 86.1573 130.727 87.034 130.97 87.8565C131.214 88.679 131.699 89.4096 132.362 89.9539C133.025 90.4982 133.836 90.8312 134.69 90.91C138.76 92.25 137.18 96.21 137.18 96.21L125.72 105.21L102.43 75.64L113.78 66.64C118.24 65.57 118.35 70.3 118.35 70.3C118.244 71.0012 118.314 71.7179 118.553 72.3855C118.792 73.0531 119.194 73.6508 119.722 74.1247C120.249 74.5987 120.886 74.9341 121.576 75.1008C122.265 75.2675 122.985 75.2603 123.671 75.0798C124.357 74.8993 124.987 74.5512 125.505 74.0667C126.023 73.5823 126.413 72.9767 126.639 72.3044C126.865 71.6322 126.92 70.9143 126.8 70.2153C126.68 69.5163 126.388 68.8581 125.95 68.3C125.585 67.8414 125.131 67.4615 124.616 67.1831C124.1 66.9046 123.533 66.7335 122.95 66.68C118.92 65.35 120.5 61.35 120.5 61.35L132.07 52.22L141.07 63.69C141.07 63.69 145.07 65.27 146.37 61.2C146.456 60.3477 146.795 59.5406 147.343 58.8827C147.892 58.2248 148.625 57.7461 149.448 57.5084C150.271 57.2707 151.146 57.2847 151.961 57.5488C152.776 57.8128 153.493 58.3148 154.02 58.99Z" fill="#FF4500"/>
<path d="M116.15 85.07C118.6 87.07 121.15 89.22 124.15 89.74C124.727 89.8693 125.324 89.8819 125.907 89.7771C126.489 89.6724 127.044 89.4524 127.54 89.13C127.711 89.0282 127.85 88.8807 127.942 88.704C128.034 88.5274 128.075 88.3286 128.06 88.13C127.95 87.64 127.35 87.47 126.86 87.38C124.568 87.0666 122.368 86.2763 120.4 85.06C119.67 84.5435 118.978 83.9754 118.33 83.36L113.46 79.02C113.401 78.9477 113.326 78.8895 113.241 78.8497C113.156 78.8099 113.064 78.7895 112.97 78.79C112.77 78.79 112.65 79.02 112.56 79.2C112.258 79.8143 112.03 80.4621 111.88 81.13C111.73 81.86 111.88 81.96 112.51 82.38C113.77 83.2333 114.983 84.13 116.15 85.07Z" fill="url(#paint3_linear)"/>
<path d="M118.41 81.41C120.105 82.8926 122.185 83.8636 124.41 84.21C125.072 84.219 125.724 84.3726 126.32 84.66C125.91 84.97 125.47 85.5 125.78 85.91C125.879 86.0241 126.007 86.1103 126.15 86.16C126.648 86.3727 127.189 86.4685 127.73 86.44C127.998 86.3992 128.271 86.4197 128.53 86.5C128.635 86.561 128.726 86.642 128.799 86.7383C128.872 86.8347 128.926 86.9445 128.956 87.0615C128.987 87.1786 128.994 87.3005 128.978 87.4204C128.961 87.5402 128.921 87.6556 128.86 87.76C128.599 88.1836 128.183 88.4886 127.7 88.61C126.915 88.8577 126.077 88.8899 125.275 88.7035C124.473 88.517 123.736 88.1187 123.14 87.55C122.79 87.21 122.5 86.82 122.14 86.49C121.452 85.8964 120.685 85.4016 119.86 85.02C117.488 83.7598 115.215 82.3224 113.06 80.72C112.72 80.527 112.422 80.2671 112.185 79.956C111.948 79.645 111.776 79.2892 111.68 78.91C111.54 77.55 113.03 75.78 114.25 77C115.67 78.44 116.82 80.09 118.41 81.41Z" fill="#FCBDBA"/>
<path d="M90.33 87.25C90.5091 87.4646 90.7349 87.6356 90.99 87.75C91.9962 88.324 93.0422 88.8253 94.12 89.25C96.9205 90.2525 99.9861 90.2277 102.77 89.18C103.884 88.779 104.929 88.209 105.87 87.49C106.227 87.2469 106.527 86.9297 106.75 86.56C107.015 85.9571 107.099 85.2897 106.99 84.64C106.74 81.27 106.37 77.79 106.99 74.52C107.189 73.3966 107.525 72.3019 107.99 71.26C108.8 69.8382 109.47 68.3412 109.99 66.79C110.168 65.8367 110.136 64.856 109.896 63.9164C109.656 62.9767 109.214 62.1009 108.6 61.35C107.3 59.69 104.92 58.22 102.82 58.97C100.394 59.884 98.2905 61.4906 96.77 63.59C95.112 65.9411 93.7987 68.5172 92.87 71.24C92.47 72.31 92.08 73.38 91.77 74.48C91.1079 77.1409 90.6796 79.8545 90.49 82.59C90.38 83.73 90.28 84.87 90.16 86.01C90.0656 86.4303 90.126 86.8706 90.33 87.25Z" fill="white"/>
<path d="M102.77 89.18C103.884 88.779 104.929 88.209 105.87 87.49C106.227 87.2469 106.527 86.9297 106.75 86.56C107.015 85.9571 107.099 85.2897 106.99 84.64C106.74 81.27 106.37 77.79 106.99 74.52C106.59 74.12 106.14 73.76 105.7 73.4C104.7 72.58 103.26 70.96 101.81 71.07C102.16 72.6 102.44 74.16 102.65 75.72C102.86 77.28 102.78 78.9 103.03 80.44C103.362 83.1649 103.298 85.9234 102.84 88.63C102.797 88.8104 102.774 88.9947 102.77 89.18Z" fill="url(#paint4_linear)"/>
<path d="M114.94 76.16C115.018 76.1998 115.088 76.2548 115.144 76.3218C115.201 76.3887 115.244 76.4663 115.27 76.55C115.273 76.7162 115.212 76.8773 115.1 77C114.191 78.2824 113.052 79.3844 111.74 80.25C111.613 80.3506 111.461 80.4131 111.3 80.43C111.116 80.4102 110.943 80.3293 110.81 80.2C108.81 78.67 106.81 77.2 104.86 75.6C103.599 74.7051 102.486 73.6187 101.56 72.38C100.88 71.2619 100.362 70.0533 100.02 68.79C98.83 65.04 102.43 63.41 104.84 66.16C108.02 69.8 110.92 73.35 114.94 76.16Z" fill="white"/>
<path d="M114.45 129.46C114.398 129.336 114.38 129.2 114.397 129.066C114.415 128.933 114.467 128.806 114.55 128.7C114.77 128.49 115.13 128.59 115.41 128.7C116.028 129 116.675 129.238 117.34 129.41C118.01 129.586 118.721 129.512 119.34 129.2C119.68 129 120.01 128.7 120.4 128.73C120.596 128.759 120.784 128.831 120.95 128.94C121.55 129.251 122.194 129.47 122.86 129.59C123.14 129.614 123.411 129.703 123.65 129.85C123.722 129.901 123.775 129.975 123.8 130.06C123.8 130.26 123.61 130.41 123.42 130.48C121.34 131.29 119.01 130.99 116.79 130.75C116.541 130.715 116.289 130.715 116.04 130.75C115.67 130.82 115.22 131.01 114.91 130.75C114.645 130.369 114.486 129.923 114.45 129.46Z" fill="#473F47"/>
<path d="M94.7 135.16C94.6674 135.031 94.6678 134.895 94.7009 134.766C94.7341 134.637 94.7991 134.518 94.89 134.42C95.14 134.24 95.48 134.42 95.75 134.53C96.331 134.9 96.9434 135.217 97.58 135.48C98.2251 135.72 98.9349 135.72 99.58 135.48C99.94 135.33 100.3 135.07 100.69 135.15C100.879 135.205 101.056 135.297 101.21 135.42C101.761 135.823 102.372 136.137 103.02 136.35C103.298 136.408 103.559 136.531 103.78 136.71C103.812 136.737 103.839 136.771 103.858 136.809C103.877 136.846 103.888 136.888 103.89 136.93C103.89 137.13 103.67 137.25 103.47 137.3C101.3 137.85 99.03 137.3 96.86 136.75C96.6162 136.679 96.3638 136.642 96.11 136.64C95.74 136.64 95.27 136.8 94.99 136.46C94.7875 136.057 94.6878 135.611 94.7 135.16Z" fill="#473F47"/>
<path d="M113.22 55.64C113.05 56.19 112.88 56.74 112.74 57.3C112.581 58.1352 112.361 58.9575 112.08 59.76C111.937 60.1602 111.71 60.5248 111.413 60.8286C111.116 61.1325 110.757 61.3683 110.36 61.52C109.955 61.6493 109.516 61.6175 109.134 61.4313C108.753 61.245 108.457 60.9186 108.31 60.52C107.83 60.63 107.66 61.22 107.67 61.72C107.75 62.2092 107.659 62.7111 107.41 63.14C106.96 63.67 106.08 63.45 105.49 63.07C104.597 62.4681 103.902 61.6146 103.495 60.6177C103.087 59.6208 102.984 58.5253 103.2 57.47C103.69 55.24 103.67 52.57 104.94 50.64C105.396 49.9887 105.978 49.4346 106.65 49.01C107.239 48.5786 107.927 48.3002 108.65 48.2C109.156 48.1703 109.665 48.2107 110.16 48.32C112.28 48.68 114.08 48.99 114.09 51.42C114.025 52.8638 113.731 54.2882 113.22 55.64Z" fill="#FCBDBA"/>
<path d="M110.61 51.71C110.28 51.71 109.9 51.63 109.61 51.83C109.32 52.03 109.3 52.48 109.12 52.83C108.77 53.48 107.88 53.57 107.21 53.91C106.804 54.1272 106.466 54.4522 106.233 54.8492C106 55.2462 105.882 55.6998 105.89 56.16C105.903 55.8656 105.83 55.5737 105.68 55.32C105.64 55.2599 105.588 55.2086 105.528 55.1692C105.467 55.1298 105.399 55.1032 105.328 55.0911C105.257 55.0789 105.184 55.0814 105.114 55.0984C105.044 55.1154 104.978 55.1466 104.92 55.19C104.83 55.2969 104.777 55.4304 104.77 55.57C104.743 55.8556 104.789 56.1434 104.905 56.4059C105.02 56.6685 105.201 56.8971 105.43 57.07C105.222 57.4988 104.896 57.8593 104.491 58.1091C104.085 58.359 103.616 58.4876 103.14 58.48C102.839 58.4872 102.545 58.388 102.31 58.2C102.162 58.0479 102.052 57.8628 101.99 57.66C101.42 56.06 102.29 54.35 102.5 52.66C102.52 52.0632 102.617 51.4716 102.79 50.9C102.975 50.4962 103.229 50.1275 103.54 49.81C104.473 48.689 105.709 47.8595 107.1 47.42C108.44 47.05 111.1 47.24 112.15 48.3C112.388 48.6033 112.539 48.9662 112.585 49.3491C112.632 49.732 112.572 50.1203 112.414 50.4718C112.255 50.8234 112.003 51.1246 111.685 51.3429C111.367 51.5612 110.995 51.6882 110.61 51.71Z" fill="#FF681C"/>
<path d="M110.02 206.52V187.81C112.48 182.47 117.33 186.11 117.33 186.11C118.087 186.903 119.065 187.452 120.136 187.685C121.208 187.918 122.325 187.824 123.343 187.416C124.361 187.009 125.234 186.305 125.849 185.397C126.463 184.488 126.792 183.417 126.792 182.32C126.792 181.223 126.463 180.152 125.849 179.243C125.234 178.335 124.361 177.631 123.343 177.224C122.325 176.816 121.208 176.722 120.136 176.955C119.065 177.188 118.087 177.737 117.33 178.53C112.75 181.53 110.02 176.83 110.02 176.83V158.11H128.73C128.73 158.11 133.47 155.38 130.43 150.8C129.636 150.043 129.088 149.065 128.855 147.994C128.622 146.922 128.716 145.805 129.124 144.787C129.531 143.769 130.235 142.896 131.143 142.281C132.052 141.667 133.123 141.338 134.22 141.338C135.317 141.338 136.388 141.667 137.297 142.281C138.205 142.896 138.909 143.769 139.316 144.787C139.724 145.805 139.818 146.922 139.585 147.994C139.352 149.065 138.803 150.043 138.01 150.8C138.01 150.8 134.37 155.65 139.71 158.11H158.42V206.52H110.02Z" fill="url(#paint5_linear)"/>
<path d="M74.17 202.52H70.79L105.39 111.16C105.506 110.865 105.709 110.612 105.971 110.434C106.233 110.255 106.543 110.16 106.86 110.16C107.116 110.16 107.368 110.221 107.595 110.34C107.822 110.459 108.016 110.631 108.162 110.841C108.308 111.052 108.4 111.295 108.431 111.549C108.462 111.803 108.431 112.061 108.34 112.3L74.17 202.52Z" fill="#E8610D"/>
<path d="M94.44 202.52H91.06L126.04 110.14H129.42L94.44 202.52Z" fill="#E8610D"/>
<path d="M120.58 124.57H102.7L103.6 122.19H121.48L120.58 124.57Z" fill="#E8610D"/>
<path d="M115.08 139.08H97.2L98.11 136.7H115.99L115.08 139.08Z" fill="#E8610D"/>
<path d="M109.59 153.59H91.71L92.61 151.2H110.49L109.59 153.59Z" fill="#E8610D"/>
<path d="M104.1 168.09H86.22L87.12 165.71H105L104.1 168.09Z" fill="#E8610D"/>
<path d="M98.6 182.6H80.72L81.63 180.22H99.5L98.6 182.6Z" fill="#E8610D"/>
<path d="M103.69 124.57L99.09 136.7H116.02L115.12 139.08H98.22L93.63 151.2H110.52L109.62 153.58H92.7L88.11 165.71H105.02L104.12 168.09H87.21L82.61 180.22H99.51L98.6 182.6H81.71L74.17 202.52H70.79L105.39 111.16C105.54 110.847 105.79 110.591 106.1 110.434C106.41 110.277 106.763 110.226 107.105 110.29C107.446 110.354 107.758 110.528 107.99 110.787C108.222 111.045 108.363 111.373 108.39 111.72C108.39 111.911 108.356 112.101 108.29 112.28L104.54 122.19H121.43L120.53 124.57H103.69Z" fill="url(#paint6_linear)"/>
<path d="M94.44 202.52H91.06L126.04 110.14H129.42L94.44 202.52Z" fill="url(#paint7_linear)"/>
<path d="M262.13 123.53C261.63 123.953 261.032 124.242 260.39 124.37C259.801 124.395 259.213 124.289 258.67 124.06L250.35 121.29C249.721 121.78 249.302 122.489 249.176 123.276C249.049 124.063 249.226 124.868 249.67 125.53C250.486 126.423 251.546 127.056 252.72 127.35L258.43 129.4C259.748 130.016 261.186 130.331 262.641 130.322C264.095 130.313 265.53 129.981 266.84 129.35C268.54 128.78 270.41 128.07 271.23 126.47C272.05 124.87 271.45 122.75 271.69 120.88C272.006 119.692 272.23 118.482 272.36 117.26C272.36 116.21 271.5 114.63 270.25 114.85C269.17 115.04 268.45 116.92 267.88 117.71C266.273 119.933 264.334 121.896 262.13 123.53Z" fill="white"/>
<path d="M249.31 120.82C249.223 120.595 249.09 120.391 248.92 120.22C248.836 120.134 248.729 120.075 248.611 120.05C248.494 120.026 248.372 120.036 248.26 120.08C248.151 120.147 248.063 120.244 248.006 120.359C247.95 120.474 247.927 120.603 247.94 120.73C247.948 120.775 247.947 120.821 247.937 120.866C247.926 120.911 247.907 120.953 247.88 120.99C247.82 121.05 247.71 120.99 247.62 120.99C246.68 120.81 245.72 120.67 244.76 120.57C244.657 120.549 244.55 120.557 244.451 120.592C244.353 120.628 244.265 120.689 244.198 120.77C244.132 120.851 244.088 120.949 244.073 121.053C244.057 121.157 244.07 121.263 244.11 121.36C244.214 121.678 244.373 121.976 244.58 122.24C245.07 123.04 245.25 124.09 246.03 124.61C246.507 124.889 247.061 125.005 247.61 124.94C248.16 124.94 248.7 124.81 249.25 124.84C249.614 124.918 249.992 124.876 250.33 124.72C250.456 124.626 250.556 124.501 250.621 124.358C250.685 124.214 250.713 124.057 250.7 123.9C250.642 123.406 250.467 122.933 250.19 122.52C249.88 121.98 249.59 121.4 249.31 120.82Z" fill="#FDB9A9"/>
<path d="M272.51 183.45C269.33 182.73 269.95 187.24 269.11 188.92C268.578 189.783 267.902 190.547 267.11 191.18C266.33 191.829 265.821 192.745 265.68 193.75C265.661 193.937 265.7 194.125 265.79 194.29C265.952 194.488 266.179 194.622 266.43 194.67C268.248 195.201 270.201 195.007 271.88 194.13C272.666 193.759 273.319 193.155 273.75 192.4C274.098 191.586 274.262 190.705 274.23 189.82C274.33 187.94 275.17 184.04 272.51 183.45Z" fill="#FDB9A9"/>
<path d="M269.69 192.75C269.69 192.75 260.63 193.14 264.47 195.98C268.31 198.82 274.04 195.29 274.6 194.64C275.16 193.99 274.7 192.88 274.7 192.88L269.69 192.75Z" fill="#E8610D"/>
<path d="M274.2 194C273.4 195 269.14 196.31 267.25 196.17C265.36 196.03 263.67 195.17 263.86 193.94C264.05 192.71 267.37 189.88 268 189.89C268.63 189.9 269.12 191.35 270.38 191.65C270.943 191.743 271.521 191.691 272.058 191.499C272.595 191.306 273.074 190.98 273.45 190.55C273.563 190.4 273.722 190.291 273.903 190.243C274.085 190.194 274.277 190.207 274.45 190.28C274.714 190.874 274.828 191.523 274.785 192.171C274.741 192.819 274.541 193.447 274.2 194Z" fill="white"/>
<path d="M283.44 185.23C280.26 184.49 280.88 189.01 280.04 190.68C279.509 191.546 278.832 192.314 278.04 192.95C277.261 193.595 276.751 194.508 276.61 195.51C276.593 195.7 276.632 195.891 276.72 196.06C276.885 196.255 277.11 196.389 277.36 196.44C279.179 196.967 281.13 196.773 282.81 195.9C283.595 195.522 284.247 194.916 284.68 194.16C285.027 193.349 285.191 192.472 285.16 191.59C285.26 189.69 286.1 185.8 283.44 185.23Z" fill="#FDB9A9"/>
<path d="M280.62 194.49C280.62 194.49 271.56 194.87 275.4 197.73C279.24 200.59 284.97 197.03 285.53 196.38C286.09 195.73 285.63 194.62 285.63 194.62L280.62 194.49Z" fill="#E8610D"/>
<path d="M285.13 195.72C284.33 196.72 280.07 198.04 278.18 197.9C276.29 197.76 274.6 196.9 274.79 195.67C274.98 194.44 278.3 191.61 278.93 191.67C279.56 191.73 280.05 193.13 281.31 193.42C281.872 193.516 282.45 193.465 282.987 193.275C283.524 193.084 284.004 192.759 284.38 192.33C284.491 192.178 284.651 192.069 284.833 192.02C285.014 191.971 285.207 191.985 285.38 192.06C285.633 192.646 285.743 193.284 285.699 193.92C285.656 194.557 285.461 195.174 285.13 195.72Z" fill="white"/>
<path d="M275.23 144.1L279.49 188.94L285.63 188.18C288.06 177.24 287.46 144.51 287.46 144.51L275.23 144.1Z" fill="#473F47"/>
<path d="M279.49 142.89L275.23 187.72L269.07 186.96C265.56 158.6 268.46 140.96 268.46 140.96L279.49 142.89Z" fill="#473F47"/>
<path d="M269.02 126.68C268.94 125.86 268.72 125.04 268.64 124.2C268.44 122.51 268.47 120.801 268.73 119.12C269.019 117.326 269.561 115.582 270.34 113.94C271.04 112.52 272.34 111.94 273.76 111.2C274.968 110.551 276.276 110.108 277.63 109.89C278.583 109.803 279.543 109.857 280.48 110.05C283.38 110.6 287.19 112.05 289.17 114.38C290.66 116.09 290.83 118.55 290.88 120.82C290.94 123.95 290.88 127.08 290.68 130.21C290.68 130.66 290.63 131.11 290.59 131.57C290.429 135.052 289.902 138.508 289.02 141.88C288.854 142.934 288.284 143.881 287.43 144.52C285.16 145.84 281.7 145.11 279.25 144.77C276 144.31 272.67 143.83 269.79 142.25C269.192 141.994 268.709 141.528 268.43 140.94C268.286 140.2 268.381 139.433 268.7 138.75C269.7 135.55 268.92 132.18 268.92 128.91C268.92 128.32 268.99 127.72 268.99 127.12C269.02 126.98 269.02 126.83 269.02 126.68Z" fill="white"/>
<path d="M279.22 132.47C279.991 132.95 280.841 133.288 281.73 133.47C284.38 134.24 287.1 134.65 289.73 135.47C289.909 135.505 290.075 135.588 290.21 135.71C290.318 135.876 290.367 136.073 290.35 136.27C290.362 137.04 290.247 137.807 290.01 138.54C289.933 138.906 289.723 139.23 289.42 139.45C289.036 139.59 288.614 139.59 288.23 139.45L278.32 137.35C277.611 137.169 276.882 137.081 276.15 137.09C275.283 137.191 274.433 137.403 273.62 137.72C272.1 138.207 270.536 138.542 268.95 138.72C269.034 136.828 269.265 134.946 269.64 133.09C269.785 132.541 269.993 132.011 270.26 131.51C270.58 131.015 270.956 130.559 271.38 130.15C272.98 128.48 274.09 126.39 275.71 124.72C276.56 123.84 277.62 123.28 278.37 122.34C278.67 121.96 281.27 118.69 281.02 118.34C281.52 118.96 282.76 118.34 283.21 118.98C283.49 119.38 283.21 119.92 282.95 120.33C281.034 123.538 279.697 127.059 279 130.73C278.8 131.58 278.5 131.88 279.22 132.47Z" fill="url(#paint8_linear)"/>
<path d="M271.14 91.42C272.059 92.0107 272.782 92.8623 273.214 93.8659C273.647 94.8694 273.77 95.9792 273.568 97.0532C273.366 98.1271 272.848 99.1164 272.081 99.8943C271.313 100.672 270.331 101.204 269.26 101.42C269.26 101.42 263.58 103.56 266.77 108.5L282.55 118.55L272.55 134.33C267.61 137.52 265.47 131.84 265.47 131.84C265.255 130.768 264.724 129.784 263.945 129.016C263.167 128.248 262.176 127.73 261.101 127.53C260.026 127.33 258.915 127.455 257.912 127.891C256.909 128.327 256.06 129.054 255.473 129.977C254.886 130.899 254.589 131.977 254.619 133.07C254.65 134.163 255.007 135.222 255.644 136.111C256.281 137 257.17 137.678 258.196 138.057C259.222 138.436 260.338 138.5 261.4 138.24C266.9 138.13 266.66 143.6 266.66 143.6L256.66 159.38L215.82 133.38L225.77 117.74C230.71 114.56 232.85 120.23 232.85 120.23C233.062 121.306 233.591 122.295 234.37 123.067C235.149 123.84 236.141 124.361 237.219 124.565C238.297 124.768 239.411 124.644 240.418 124.208C241.425 123.772 242.278 123.044 242.867 122.119C243.457 121.194 243.755 120.113 243.725 119.017C243.694 117.92 243.336 116.858 242.696 115.967C242.056 115.076 241.163 114.397 240.134 114.018C239.104 113.639 237.985 113.577 236.92 113.84C231.42 113.95 231.67 108.48 231.67 108.48L241.81 92.54L257.6 102.6C257.6 102.6 263.07 102.84 262.96 97.34C262.785 96.6176 262.757 95.8675 262.878 95.1341C262.998 94.4007 263.264 93.6988 263.66 93.07C264.448 91.8766 265.669 91.0368 267.066 90.7288C268.462 90.4208 269.923 90.6687 271.14 91.42Z" fill="#E8610D"/>
<path d="M295.49 123.75C295.9 124.464 296.235 125.218 296.49 126C296.813 127.371 296.847 128.795 296.59 130.18C296.469 131.538 295.982 132.837 295.18 133.94C293.49 135.94 290.47 136.13 287.85 135.88C284.876 135.606 281.939 135.016 279.09 134.12C278.825 134.06 278.576 133.944 278.36 133.78C278.129 133.519 277.97 133.202 277.9 132.86C277.682 132.031 277.538 131.184 277.47 130.33C280.47 129.47 283.79 130.17 286.92 129.71C287.133 129.709 287.343 129.657 287.533 129.559C287.722 129.46 287.885 129.318 288.008 129.144C288.131 128.97 288.211 128.769 288.241 128.558C288.271 128.347 288.25 128.131 288.18 127.93C288.03 126.17 286.94 124.63 286.43 122.93C285.93 121.294 285.972 119.54 286.55 117.93C286.722 117.362 287.015 116.839 287.409 116.395C287.802 115.952 288.287 115.599 288.83 115.36C290.08 114.95 290.56 115.93 291.25 116.85C292.838 119.038 294.256 121.345 295.49 123.75Z" fill="white"/>
<path d="M276.22 129.21C276.102 129.114 275.96 129.052 275.81 129.03C275.695 129.042 275.585 129.084 275.492 129.153C275.399 129.222 275.326 129.314 275.28 129.42C275.192 129.636 275.092 129.846 274.98 130.05C274.83 130.217 274.644 130.347 274.436 130.432C274.228 130.517 274.004 130.554 273.78 130.54C273.331 130.495 272.879 130.495 272.43 130.54C272.264 130.574 272.109 130.65 271.98 130.76C271.857 130.88 271.771 131.033 271.73 131.2C271.654 131.54 271.663 131.893 271.758 132.228C271.852 132.563 272.028 132.87 272.27 133.12C272.758 133.615 273.359 133.985 274.02 134.2C274.695 134.498 275.443 134.588 276.17 134.46C276.569 134.344 276.949 134.172 277.3 133.95L278.76 133.14C278.882 133.082 278.991 133.001 279.08 132.9C279.4 132.5 278.96 131.3 278.67 130.9C277.94 130.22 277.115 129.651 276.22 129.21Z" fill="#FDB9A9"/>
<path d="M275.24 105.35C275.24 104.49 275.31 103.62 275.4 102.78C275.49 101.94 275.6 101.28 275.74 100.54C275.749 100.321 275.806 100.107 275.906 99.9115C276.006 99.7165 276.148 99.5454 276.32 99.41C277.476 98.7198 278.804 98.373 280.15 98.41C280.659 98.3742 281.17 98.4446 281.65 98.6167C282.13 98.7889 282.57 99.059 282.94 99.41C283.392 99.9843 283.66 100.681 283.71 101.41C283.757 103.303 283.569 105.194 283.15 107.04C282.939 108.49 282.862 109.956 282.92 111.42C282.211 111.891 281.397 112.18 280.55 112.26C280.156 112.256 279.765 112.192 279.39 112.07C279.181 112.023 278.997 111.902 278.87 111.73C278.825 111.57 278.825 111.4 278.87 111.24C278.88 111.087 278.88 110.933 278.87 110.78C278.928 109.924 278.912 109.064 278.82 108.21C278.822 108.173 278.815 108.136 278.802 108.101C278.788 108.067 278.767 108.036 278.74 108.01C278.685 107.99 278.625 107.99 278.57 108.01H278.33C277.905 108.055 277.475 108.055 277.05 108.01C276.538 107.96 276.062 107.725 275.71 107.35C275.304 106.768 275.136 106.052 275.24 105.35Z" fill="#FDB9A9"/>
<path d="M277.02 99.87C276.72 99.87 276.45 100.03 276.19 99.87C275.918 99.6445 275.679 99.382 275.48 99.09C275.002 98.4563 274.768 97.672 274.82 96.88C274.839 96.5216 274.956 96.1755 275.16 95.88C275.382 95.6112 275.667 95.4016 275.99 95.27C276.61 94.9646 277.301 94.83 277.99 94.88C278.989 95.0099 279.921 95.4547 280.65 96.15C280.804 96.3102 280.992 96.4334 281.2 96.51C281.391 96.5502 281.589 96.5502 281.78 96.51C283.046 96.4035 284.303 96.7905 285.29 97.59C285.85 98.08 286.29 98.71 286.87 99.14C287.45 99.57 288.02 99.73 288.32 100.28C288.445 100.536 288.496 100.821 288.466 101.105C288.436 101.388 288.326 101.656 288.15 101.88C287.778 102.318 287.266 102.615 286.7 102.72C286.762 102.883 286.791 103.056 286.786 103.23C286.78 103.404 286.739 103.575 286.667 103.734C286.594 103.892 286.491 104.034 286.363 104.152C286.234 104.27 286.084 104.361 285.92 104.42C285.689 104.455 285.466 104.53 285.26 104.64C285.12 104.75 285.06 104.92 284.92 105.03C284.59 105.3 284.16 105.39 284.02 105.85C283.978 106.044 283.961 106.242 283.97 106.44C283.946 106.733 283.826 107.011 283.63 107.23C283.5 107.37 283.27 107.72 283.08 107.76C282.89 107.8 282.72 107.57 282.66 107.37C282.426 106.522 282.485 105.62 282.83 104.81C283.077 104.419 283.222 103.972 283.25 103.51C283.25 103.05 282.59 102.69 282.25 102.96C281.91 103.23 281.89 103.88 281.53 103.75C281.753 103.104 281.737 102.399 281.483 101.763C281.23 101.128 280.757 100.605 280.15 100.29C279.476 100.084 278.774 99.9861 278.07 100C277.741 99.9307 277.406 99.8938 277.07 99.89L277.02 99.87Z" fill="#473F47"/>
<path d="M278.33 108.03C279.323 107.841 280.294 107.553 281.23 107.17C281.314 107.958 281.125 108.751 280.693 109.416C280.262 110.081 279.614 110.576 278.86 110.82C278.935 109.965 278.935 109.105 278.86 108.25C278.859 108.176 278.831 108.104 278.78 108.05C278.725 108.03 278.665 108.03 278.61 108.05H278.38L278.33 108.03Z" fill="#DE9F93"/>
<path d="M247.02 115.22C247.172 115.437 247.27 115.687 247.306 115.95C247.343 116.212 247.317 116.48 247.23 116.73C247.056 117.231 246.803 117.7 246.48 118.12L244.91 120.44C244.5 121.04 243.91 121.72 243.22 121.66C241.5 121.54 240.74 117.08 241.38 115.76C242.12 114.11 245.89 113.81 247.02 115.22Z" fill="#FDB9A9"/>
<path d="M255.12 155.11V203.52H206.72V184.8C206.72 184.8 209.45 180.06 214.03 183.1C214.787 183.894 215.765 184.442 216.836 184.675C217.908 184.908 219.025 184.814 220.043 184.406C221.061 183.999 221.934 183.295 222.549 182.387C223.163 181.478 223.492 180.407 223.492 179.31C223.492 178.213 223.163 177.142 222.549 176.233C221.934 175.325 221.061 174.621 220.043 174.214C219.025 173.806 217.908 173.712 216.836 173.945C215.765 174.178 214.787 174.727 214.03 175.52C214.03 175.52 209.18 179.16 206.72 173.82V155.11H225.43C230.77 152.65 227.13 147.8 227.13 147.8C226.336 147.043 225.788 146.065 225.555 144.994C225.322 143.922 225.416 142.805 225.824 141.787C226.231 140.769 226.935 139.896 227.843 139.281C228.752 138.667 229.823 138.338 230.92 138.338C232.017 138.338 233.088 138.667 233.997 139.281C234.905 139.896 235.609 140.769 236.016 141.787C236.424 142.805 236.518 143.922 236.285 144.994C236.052 146.065 235.504 147.043 234.71 147.8C231.71 152.38 236.41 155.11 236.41 155.11H255.12Z" fill="#E8610D"/>
<path d="M255.12 155.11V203.52H206.72V184.8C206.72 184.8 209.45 180.06 214.03 183.1C214.787 183.894 215.765 184.442 216.836 184.675C217.908 184.908 219.025 184.814 220.043 184.406C221.061 183.999 221.934 183.295 222.549 182.387C223.163 181.478 223.492 180.407 223.492 179.31C223.492 178.213 223.163 177.142 222.549 176.233C221.934 175.325 221.061 174.621 220.043 174.214C219.025 173.806 217.908 173.712 216.836 173.945C215.765 174.178 214.787 174.727 214.03 175.52C214.03 175.52 209.18 179.16 206.72 173.82V155.11H225.43C230.77 152.65 227.13 147.8 227.13 147.8C226.336 147.043 225.788 146.065 225.555 144.994C225.322 143.922 225.416 142.805 225.824 141.787C226.231 140.769 226.935 139.896 227.843 139.281C228.752 138.667 229.823 138.338 230.92 138.338C232.017 138.338 233.088 138.667 233.997 139.281C234.905 139.896 235.609 140.769 236.016 141.787C236.424 142.805 236.518 143.922 236.285 144.994C236.052 146.065 235.504 147.043 234.71 147.8C231.71 152.38 236.41 155.11 236.41 155.11H255.12Z" fill="url(#paint9_linear)"/>
<path d="M175.1 130.9C175.097 131.996 174.766 133.067 174.15 133.973C173.534 134.88 172.661 135.582 171.644 135.99C170.626 136.397 169.51 136.491 168.438 136.259C167.367 136.028 166.389 135.481 165.63 134.69C161.05 131.69 158.32 136.39 158.32 136.39V155.11H206.72V106.7H158.32V125.41C160.78 130.75 165.63 127.11 165.63 127.11C166.389 126.319 167.367 125.772 168.438 125.541C169.51 125.309 170.626 125.403 171.644 125.81C172.661 126.217 173.534 126.92 174.15 127.827C174.766 128.733 175.097 129.804 175.1 130.9Z" fill="#E8610D"/>
<path d="M178.73 162.42C177.937 163.177 177.388 164.155 177.155 165.226C176.922 166.298 177.016 167.415 177.424 168.433C177.831 169.451 178.535 170.324 179.443 170.939C180.352 171.553 181.423 171.882 182.52 171.882C183.617 171.882 184.688 171.553 185.597 170.939C186.505 170.324 187.209 169.451 187.616 168.433C188.024 167.415 188.118 166.298 187.885 165.226C187.652 164.155 187.103 163.177 186.31 162.42C186.31 162.42 182.67 157.57 188.01 155.11H177.02C177.02 155.11 181.77 157.84 178.73 162.42Z" fill="#E8610D"/>
<path d="M158.32 106.7V125.41C160.78 130.75 165.63 127.11 165.63 127.11C166.387 126.316 167.365 125.768 168.436 125.535C169.508 125.302 170.625 125.396 171.643 125.804C172.661 126.211 173.534 126.915 174.149 127.823C174.763 128.732 175.092 129.803 175.092 130.9C175.092 131.997 174.763 133.068 174.149 133.977C173.534 134.885 172.661 135.589 171.643 135.996C170.625 136.404 169.508 136.498 168.436 136.265C167.365 136.032 166.387 135.483 165.63 134.69C161.05 131.69 158.32 136.39 158.32 136.39V155.11H177.02C177.02 155.11 181.76 157.84 178.72 162.42C177.927 163.177 177.378 164.155 177.145 165.226C176.912 166.298 177.006 167.415 177.414 168.433C177.821 169.451 178.525 170.324 179.433 170.939C180.342 171.553 181.413 171.882 182.51 171.882C183.607 171.882 184.678 171.553 185.587 170.939C186.495 170.324 187.199 169.451 187.606 168.433C188.014 167.415 188.108 166.298 187.875 165.226C187.642 164.155 187.093 163.177 186.3 162.42C186.3 162.42 182.66 157.57 188 155.11H206.72V106.7H158.32Z" fill="#FF4500"/>
<path d="M158.32 155.11V203.52H206.72V184.8C206.72 184.8 209.45 180.06 214.03 183.1C214.787 183.894 215.765 184.442 216.836 184.675C217.908 184.908 219.025 184.814 220.043 184.406C221.061 183.999 221.934 183.295 222.549 182.387C223.163 181.478 223.492 180.407 223.492 179.31C223.492 178.213 223.163 177.142 222.549 176.233C221.934 175.325 221.061 174.621 220.043 174.214C219.025 173.806 217.908 173.712 216.836 173.945C215.765 174.178 214.787 174.727 214.03 175.52C214.03 175.52 209.18 179.16 206.72 173.82V155.11H188.02C182.68 157.57 186.32 162.42 186.32 162.42C187.114 163.177 187.662 164.155 187.895 165.226C188.128 166.298 188.034 167.415 187.626 168.433C187.219 169.451 186.515 170.324 185.607 170.939C184.698 171.553 183.627 171.882 182.53 171.882C181.433 171.882 180.362 171.553 179.453 170.939C178.545 170.324 177.841 169.451 177.434 168.433C177.026 167.415 176.932 166.298 177.165 165.226C177.398 164.155 177.947 163.177 178.74 162.42C181.74 157.84 177.04 155.11 177.04 155.11H158.32Z" fill="#E8610D"/>
<path d="M110.02 203.52V184.81C112.48 179.47 117.33 183.11 117.33 183.11C118.087 183.903 119.065 184.452 120.136 184.685C121.208 184.918 122.325 184.824 123.343 184.416C124.361 184.009 125.234 183.305 125.849 182.397C126.463 181.488 126.792 180.417 126.792 179.32C126.792 178.223 126.463 177.152 125.849 176.243C125.234 175.335 124.361 174.631 123.343 174.224C122.325 173.816 121.208 173.722 120.136 173.955C119.065 174.188 118.087 174.737 117.33 175.53C112.75 178.53 110.02 173.83 110.02 173.83V155.11H128.73C128.73 155.11 133.47 152.38 130.43 147.8C129.636 147.043 129.088 146.065 128.855 144.994C128.622 143.922 128.716 142.805 129.124 141.787C129.531 140.769 130.235 139.896 131.143 139.281C132.052 138.667 133.123 138.338 134.22 138.338C135.317 138.338 136.388 138.667 137.297 139.281C138.205 139.896 138.909 140.769 139.316 141.787C139.724 142.805 139.818 143.922 139.585 144.994C139.352 146.065 138.803 147.043 138.01 147.8C138.01 147.8 134.37 152.65 139.71 155.11H158.42V203.52H110.02Z" fill="#E8610D"/>
<path d="M110.02 203.52V184.81C112.48 179.47 117.33 183.11 117.33 183.11C118.087 183.903 119.065 184.452 120.136 184.685C121.208 184.918 122.325 184.824 123.343 184.416C124.361 184.009 125.234 183.305 125.849 182.397C126.463 181.488 126.792 180.417 126.792 179.32C126.792 178.223 126.463 177.152 125.849 176.243C125.234 175.335 124.361 174.631 123.343 174.224C122.325 173.816 121.208 173.722 120.136 173.955C119.065 174.188 118.087 174.737 117.33 175.53C112.75 178.53 110.02 173.83 110.02 173.83V155.11H128.73C128.73 155.11 133.47 152.38 130.43 147.8C129.636 147.043 129.088 146.065 128.855 144.994C128.622 143.922 128.716 142.805 129.124 141.787C129.531 140.769 130.235 139.896 131.143 139.281C132.052 138.667 133.123 138.338 134.22 138.338C135.317 138.338 136.388 138.667 137.297 139.281C138.205 139.896 138.909 140.769 139.316 141.787C139.724 142.805 139.818 143.922 139.585 144.994C139.352 146.065 138.803 147.043 138.01 147.8C138.01 147.8 134.37 152.65 139.71 155.11H158.42V203.52H110.02Z" fill="black"/>
<path d="M175.16 130.91C175.157 132.006 174.826 133.076 174.21 133.983C173.594 134.89 172.721 135.593 171.704 136C170.686 136.407 169.57 136.501 168.498 136.269C167.427 136.038 166.449 135.491 165.69 134.7C165.69 134.7 160.84 131.06 158.38 136.4V155.11H139.67C134.33 152.65 137.97 147.8 137.97 147.8C138.763 147.043 139.312 146.065 139.545 144.994C139.778 143.922 139.684 142.805 139.276 141.787C138.869 140.769 138.165 139.896 137.257 139.281C136.348 138.667 135.277 138.338 134.18 138.338C133.083 138.338 132.012 138.667 131.103 139.281C130.195 139.896 129.491 140.769 129.084 141.787C128.676 142.805 128.582 143.922 128.815 144.994C129.048 146.065 129.596 147.043 130.39 147.8C133.39 152.38 128.69 155.11 128.69 155.11H110.02V106.7H128.55C133.89 109.16 130.25 114.01 130.25 114.01C129.456 114.767 128.908 115.745 128.675 116.816C128.442 117.888 128.536 119.005 128.944 120.023C129.351 121.041 130.055 121.914 130.963 122.529C131.872 123.143 132.943 123.472 134.04 123.472C135.137 123.472 136.208 123.143 137.117 122.529C138.025 121.914 138.729 121.041 139.136 120.023C139.544 119.005 139.638 117.888 139.405 116.816C139.172 115.745 138.623 114.767 137.83 114.01C134.83 109.43 139.53 106.7 139.53 106.7H158.42V125.42C158.42 125.42 161.15 130.16 165.73 127.12C166.489 126.329 167.467 125.782 168.538 125.551C169.61 125.319 170.726 125.413 171.744 125.82C172.761 126.228 173.634 126.93 174.25 127.837C174.866 128.743 175.197 129.814 175.2 130.91H175.16Z" fill="#E8610D"/>
<path d="M187.02 223.93C187.037 225.028 186.725 226.106 186.124 227.024C185.523 227.943 184.66 228.66 183.646 229.083C182.633 229.506 181.517 229.616 180.441 229.398C179.365 229.18 178.379 228.644 177.61 227.86C177.61 227.86 172.71 224.29 170.33 229.66L170.6 248.37L151.89 248.64C146.51 246.26 150.08 241.36 150.08 241.36C150.859 240.592 151.39 239.608 151.605 238.536C151.821 237.463 151.71 236.351 151.288 235.342C150.865 234.333 150.151 233.473 149.235 232.874C148.32 232.274 147.247 231.962 146.153 231.978C145.059 231.994 143.995 232.337 143.098 232.963C142.201 233.589 141.511 234.468 141.118 235.489C140.725 236.51 140.647 237.625 140.893 238.691C141.139 239.757 141.699 240.725 142.5 241.47C145.61 246 140.91 248.8 140.91 248.8L122.2 249.07L121.5 200.66L140.03 200.4C145.41 202.78 141.84 207.68 141.84 207.68C141.061 208.448 140.53 209.432 140.315 210.504C140.099 211.577 140.21 212.689 140.632 213.698C141.055 214.707 141.769 215.567 142.685 216.166C143.6 216.766 144.673 217.078 145.767 217.062C146.861 217.046 147.925 216.703 148.822 216.077C149.719 215.451 150.409 214.572 150.802 213.551C151.195 212.53 151.273 211.415 151.027 210.349C150.781 209.283 150.221 208.315 149.42 207.57C146.31 203.04 151.01 200.24 151.01 200.24L169.9 199.97L170.17 218.69C170.17 218.69 172.97 223.39 177.5 220.28C178.014 219.732 178.633 219.294 179.32 218.991C180.008 218.689 180.749 218.529 181.5 218.52C182.948 218.509 184.342 219.072 185.376 220.086C186.411 221.1 187.002 222.482 187.02 223.93Z" fill="#E8610D"/>
<path d="M128.28 200.84C127.61 201.58 127.09 203.21 128.15 203.9C128.529 204.105 128.95 204.221 129.38 204.24L135.04 204.93C134.87 204.93 137.83 238.28 138.99 245.37C139.13 246.21 139.48 247.26 140.33 247.37C140.585 247.355 140.833 247.28 141.053 247.151C141.274 247.023 141.461 246.844 141.6 246.63C142.417 245.35 142.883 243.877 142.95 242.36C144.356 231.474 145.024 220.506 144.95 209.53C144.95 207.36 144.87 205.09 143.79 203.2C143.127 202.172 142.257 201.292 141.236 200.618C140.216 199.943 139.066 199.487 137.86 199.28C134.63 198.55 130.63 198.22 128.28 200.84Z" fill="url(#paint10_linear)"/>
<path d="M141.9 270.06V270.19C142.14 270.8 142.9 271 143.54 271.08C144.144 271.146 144.752 271.173 145.36 271.16C145.651 271.171 145.943 271.13 146.22 271.04C146.474 270.928 146.713 270.784 146.93 270.61L148.68 269.31C149.172 268.971 149.622 268.575 150.02 268.13C150.414 267.673 150.621 267.083 150.6 266.48C150.579 266.182 150.467 265.897 150.279 265.665C150.092 265.432 149.837 265.263 149.55 265.18C149.185 265.135 148.815 265.135 148.45 265.18C148.044 265.232 147.631 265.165 147.262 264.988C146.893 264.81 146.583 264.53 146.37 264.18C146.298 263.854 146.122 263.559 145.87 263.34C145.615 263.216 145.327 263.181 145.05 263.24C144.443 263.27 143.843 263.388 143.27 263.59C142.981 263.694 142.719 263.86 142.502 264.078C142.286 264.296 142.121 264.56 142.02 264.85C141.959 265.119 141.932 265.394 141.94 265.67C141.975 266.239 141.975 266.811 141.94 267.38C141.86 268.091 141.82 268.805 141.82 269.52C141.826 269.703 141.852 269.884 141.9 270.06Z" fill="#262836"/>
<path d="M158.87 270.29C157.692 270.829 156.479 271.29 155.24 271.67C154.747 271.883 154.194 271.915 153.68 271.76C153.478 271.662 153.3 271.522 153.157 271.35C153.014 271.177 152.909 270.976 152.85 270.76C152.742 270.319 152.698 269.864 152.72 269.41C152.797 268.708 152.941 268.015 153.15 267.34C153.26 266.71 153.35 266.08 153.43 265.45C153.56 264.54 153.68 263.64 153.79 262.74L156.94 263.41C157.27 263.48 157.58 264.75 157.78 265.02C157.926 265.219 158.116 265.382 158.334 265.498C158.552 265.614 158.793 265.68 159.04 265.69C159.577 265.612 160.118 265.569 160.66 265.56C161.01 265.642 161.322 265.838 161.548 266.116C161.775 266.395 161.902 266.741 161.91 267.1C161.907 267.457 161.83 267.809 161.684 268.134C161.538 268.46 161.325 268.751 161.06 268.99C160.53 269.47 159.921 269.856 159.26 270.13L158.87 270.29Z" fill="#262836"/>
<path d="M158.92 266.77C158.093 267.24 157.235 267.651 156.35 268H156.27C154.81 268.57 153.18 266.28 153.18 266.28C153.18 266.28 151.12 253.56 151.18 248.28C151.25 244.66 150.39 239.5 149.1 230.14C148.78 239.7 147.16 243.9 147.57 247.33C148.2 252.54 147.45 265.48 147.45 265.48C147.45 265.48 146.07 268 144.56 267.66H144.47C143.561 267.453 142.668 267.179 141.8 266.84C141.8 266.84 140.04 249.02 140.04 244.32C140.04 239.62 140.24 235.41 140.24 235.41L139.32 220.53L143.24 214.83L143.56 214.7L143.86 214.4L148.21 211.21C148.21 211.21 148.21 211.95 148.13 213.21L151.51 215.02L151.83 215.26L152.16 215.34L157.82 216.34C157.82 216.34 159.3 239.17 159.82 243.84C160.34 248.51 158.92 266.77 158.92 266.77Z" fill="#E8610D"/>
<path d="M158.92 266.77C158.093 267.24 157.235 267.651 156.35 268H156.27C154.81 268.57 153.18 266.28 153.18 266.28C153.18 266.28 151.12 253.56 151.18 248.28C151.25 244.66 150.39 239.5 149.1 230.14C148.78 239.7 147.16 243.9 147.57 247.33C148.2 252.54 147.45 265.48 147.45 265.48C147.45 265.48 146.07 268 144.56 267.66H144.47C143.561 267.453 142.668 267.179 141.8 266.84C141.8 266.84 140.04 249.02 140.04 244.32C140.04 239.62 140.24 235.41 140.24 235.41L139.32 220.53L143.24 214.83L143.56 214.7L143.86 214.4L148.21 211.21C148.21 211.21 148.21 211.95 148.13 213.21L151.51 215.02L151.83 215.26L152.16 215.34L157.82 216.34C157.82 216.34 159.3 239.17 159.82 243.84C160.34 248.51 158.92 266.77 158.92 266.77Z" fill="url(#paint11_linear)"/>
<path d="M185.56 187.19C185.63 187.14 185.714 187.112 185.8 187.11C186.03 187.11 186.04 187.48 185.96 187.7C185.751 188.313 185.447 188.89 185.06 189.41C184.935 189.54 184.86 189.71 184.85 189.89C184.85 190.07 185.01 190.2 185.13 190.33C185.498 190.757 185.759 191.265 185.893 191.813C186.027 192.36 186.029 192.931 185.9 193.48C185.623 194.575 185.052 195.574 184.25 196.37C184.057 196.616 183.817 196.821 183.544 196.974C183.271 197.127 182.971 197.224 182.66 197.26C181.58 197.26 180.23 195.93 179.8 195.01C179.643 194.55 179.609 194.058 179.7 193.581C179.791 193.104 180.005 192.659 180.32 192.29C181.596 190.165 183.401 188.408 185.56 187.19Z" fill="#A67C52"/>
<path d="M154.23 176.69C154.58 177.05 155.12 177.42 154.97 177.89C154.89 178.14 154.62 178.29 154.42 178.47C153.927 178.993 153.66 179.691 153.68 180.41C153.701 181.125 153.6 181.839 153.38 182.52C153.255 182.857 153.018 183.141 152.708 183.323C152.398 183.505 152.035 183.575 151.68 183.52C151.27 183.41 150.86 183.05 150.46 183.22C150.06 183.39 150.06 183.72 149.9 184C149.682 184.345 149.371 184.621 149.003 184.798C148.635 184.975 148.226 185.045 147.82 185C147.018 184.879 146.245 184.612 145.54 184.21C145.241 184.091 144.981 183.89 144.79 183.63C144.674 183.376 144.646 183.091 144.71 182.82C144.957 182.006 145.361 181.248 145.9 180.59C146.762 179.261 147.281 177.739 147.41 176.16C147.49 175.06 147.41 173.85 148.12 173C149.12 171.84 151.39 171.85 152.58 172.7C153.77 173.55 153.13 175.56 154.23 176.69Z" fill="#A67C52"/>
<path d="M152.81 171.71C152.671 171.984 152.46 172.216 152.2 172.38C151.67 172.69 151.2 173.05 150.72 173.38C150.236 173.699 149.895 174.194 149.77 174.76C149.56 175.76 150.12 176.9 149.77 177.91C149.64 178.12 149.31 177.99 149.18 177.79C149.05 177.59 148.97 177.34 148.77 177.22C148.42 177.02 148 177.36 147.85 177.73C147.695 178.16 147.713 178.634 147.899 179.051C148.085 179.469 148.426 179.798 148.85 179.97C148.8 180.29 148.39 180.42 148.06 180.38C147.734 180.29 147.398 180.247 147.06 180.25C146.31 180.39 146.06 181.46 145.28 181.57C145.022 181.553 144.771 181.476 144.547 181.346C144.323 181.216 144.133 181.036 143.99 180.82L143.08 179.82C142.933 179.625 142.773 179.442 142.6 179.27C142.39 179.11 142.05 179.1 141.88 178.91C141.71 178.72 141.88 178.27 141.7 178.03C141.615 177.941 141.508 177.875 141.39 177.84C141.128 177.708 140.92 177.489 140.8 177.222C140.68 176.954 140.655 176.654 140.73 176.37C140.754 176.299 140.754 176.221 140.73 176.15C140.73 176.05 140.59 176.01 140.49 175.96C140.214 175.781 140.011 175.51 139.917 175.194C139.824 174.879 139.846 174.54 139.98 174.24C140.132 173.895 140.349 173.583 140.62 173.32C140.715 173.173 140.851 173.056 141.01 172.984C141.17 172.911 141.347 172.886 141.52 172.91L141.67 171.6C141.666 171.378 141.712 171.158 141.804 170.956C141.895 170.754 142.031 170.575 142.2 170.431C142.369 170.288 142.568 170.184 142.783 170.126C142.997 170.069 143.222 170.06 143.44 170.1L143.14 169.02C143.085 168.882 143.085 168.728 143.14 168.59C143.222 168.494 143.336 168.431 143.46 168.41C143.809 168.31 144.168 168.25 144.53 168.23C144.4 167.927 144.3 167.612 144.23 167.29C144.207 167.244 144.199 167.191 144.206 167.14C144.213 167.089 144.235 167.041 144.269 167.002C144.303 166.964 144.348 166.936 144.398 166.923C144.448 166.91 144.501 166.913 144.55 166.93C144.683 166.95 144.817 166.95 144.95 166.93C144.95 166.93 144.75 166.01 144.74 165.93C144.679 165.641 144.733 165.34 144.89 165.09C144.999 164.966 145.138 164.87 145.293 164.813C145.449 164.755 145.616 164.737 145.78 164.76C146.105 164.818 146.416 164.933 146.7 165.1C146.7 164.75 147.13 164.57 147.48 164.54C148.154 164.502 148.826 164.635 149.435 164.927C150.043 165.219 150.568 165.661 150.96 166.21C151.025 166.307 151.098 166.397 151.18 166.48C151.34 166.582 151.516 166.656 151.7 166.7C151.984 166.826 152.236 167.013 152.438 167.248C152.641 167.483 152.788 167.761 152.87 168.06C153.02 168.654 153.08 169.268 153.05 169.88C153.073 170.35 153.029 170.822 152.92 171.28C152.9 171.427 152.863 171.571 152.81 171.71Z" fill="#2F3554"/>
<path d="M147.84 183.05C148.673 183.399 149.481 183.803 150.26 184.26C150.5 184.389 150.709 184.57 150.87 184.79C150.956 184.911 151.009 185.052 151.023 185.199C151.037 185.347 151.012 185.495 150.95 185.63C150.74 186 150.24 185.87 149.86 185.73C148.098 185.132 146.238 184.874 144.38 184.97C144.256 184.991 144.128 184.976 144.012 184.928C143.895 184.881 143.794 184.802 143.72 184.7C143.677 184.577 143.661 184.447 143.673 184.317C143.685 184.188 143.725 184.063 143.79 183.95C144.74 182.04 146.29 182.35 147.84 183.05Z" fill="white"/>
<path d="M182.07 197.79C181.709 198.688 181.175 199.507 180.5 200.2C179.85 200.93 179.18 201.63 178.5 202.31C176.857 203.898 175.124 205.391 173.31 206.78C172.078 207.869 170.609 208.656 169.02 209.08C168.376 209.231 167.701 209.189 167.08 208.96C166.575 208.708 166.118 208.37 165.73 207.96C165.27 207.5 159.93 201.35 159.84 201.35C159.537 201.513 159.303 201.779 159.18 202.1C158.409 203.698 157.931 205.423 157.77 207.19C157.705 207.979 157.705 208.771 157.77 209.56C157.98 212.25 158.92 215.02 157.99 217.56C157.804 218.097 157.496 218.583 157.09 218.98C156.699 219.322 156.248 219.59 155.76 219.77C154.898 220.123 153.999 220.378 153.08 220.53C152.555 220.627 152.024 220.684 151.49 220.7C149.49 220.78 147.59 220.4 145.63 220.49C143.97 220.58 142.32 221.01 140.63 220.95C140.392 220.996 140.146 220.991 139.91 220.933C139.674 220.875 139.454 220.767 139.263 220.616C139.073 220.465 138.918 220.274 138.809 220.058C138.7 219.841 138.639 219.603 138.63 219.36C137.982 215.799 137.648 212.189 137.63 208.57C137.63 207.31 137.56 206.04 137.48 204.78C137.41 203.71 137.7 200.99 136.48 200.78C133.38 200.18 130.16 200.94 127.03 200.5C127.117 198.452 127.987 196.515 129.46 195.09C130.183 194.48 130.967 193.947 131.8 193.5C132.759 192.813 133.62 191.999 134.36 191.08C136.486 188.454 139.181 186.345 142.24 184.91C142.727 184.671 143.241 184.49 143.77 184.37H143.9C143.976 184.361 144.054 184.361 144.13 184.37C144.799 184.314 145.473 184.354 146.13 184.49C150.592 185.23 155.006 186.232 159.35 187.49C159.923 187.619 160.466 187.856 160.95 188.19C161.288 188.495 161.577 188.849 161.81 189.24C163.03 191.08 164.22 192.94 165.45 194.78C166.51 196.36 167.55 198.34 169.11 199.5C172.506 198.12 175.712 196.312 178.65 194.12C179.06 193.81 179.59 193.47 180.06 193.68C180.216 193.75 180.356 193.852 180.47 193.98C181.62 194.98 182.63 196.08 182.07 197.79Z" fill="white"/>
</g>
<defs>
<linearGradient id="paint0_linear" x1="148.85" y1="241.08" x2="150.92" y2="280.87" gradientUnits="userSpaceOnUse">
<stop offset="0.01"/>
<stop offset="0.08" stop-opacity="0.69"/>
<stop offset="0.21" stop-opacity="0.32"/>
<stop offset="1" stop-opacity="0"/>
</linearGradient>
<linearGradient id="paint1_linear" x1="47728.2" y1="2219.98" x2="47739.4" y2="4719.66" gradientUnits="userSpaceOnUse">
<stop offset="0.01"/>
<stop offset="0.08" stop-opacity="0.69"/>
<stop offset="0.21" stop-opacity="0.32"/>
<stop offset="1" stop-opacity="0"/>
</linearGradient>
<linearGradient id="paint2_linear" x1="-34340.9" y1="15852.9" x2="-34033.6" y2="15972.6" gradientUnits="userSpaceOnUse">
<stop offset="0.01"/>
<stop offset="0.08" stop-opacity="0.69"/>
<stop offset="0.21" stop-opacity="0.32"/>
<stop offset="1" stop-opacity="0"/>
</linearGradient>
<linearGradient id="paint3_linear" x1="2564.38" y1="1066.32" x2="2633.64" y2="1565.06" gradientUnits="userSpaceOnUse">
<stop offset="0.01"/>
<stop offset="0.08" stop-opacity="0.69"/>
<stop offset="0.21" stop-opacity="0.32"/>
<stop offset="1" stop-opacity="0"/>
</linearGradient>
<linearGradient id="paint4_linear" x1="-13754.3" y1="-2463.41" x2="-13901.1" y2="-2356.09" gradientUnits="userSpaceOnUse">
<stop offset="0.01"/>
<stop offset="0.08" stop-opacity="0.69"/>
<stop offset="0.21" stop-opacity="0.32"/>
<stop offset="1" stop-opacity="0"/>
</linearGradient>
<linearGradient id="paint5_linear" x1="8328.34" y1="8472.89" x2="8195.79" y2="20120.2" gradientUnits="userSpaceOnUse">
<stop offset="0.01" stop-color="#E8610D"/>
<stop offset="0.08" stop-opacity="0.69"/>
<stop offset="0.21" stop-opacity="0.32"/>
<stop offset="1" stop-opacity="0"/>
</linearGradient>
<linearGradient id="paint6_linear" x1="8349.42" y1="14694.3" x2="3891.28" y2="16097.8" gradientUnits="userSpaceOnUse">
<stop offset="0.01"/>
<stop offset="0.08" stop-opacity="0.69"/>
<stop offset="0.21" stop-opacity="0.32"/>
<stop offset="1" stop-opacity="0"/>
</linearGradient>
<linearGradient id="paint7_linear" x1="5113.92" y1="13455.4" x2="-1043.5" y2="14921.7" gradientUnits="userSpaceOnUse">
<stop offset="0.01"/>
<stop offset="0.08" stop-opacity="0.69"/>
<stop offset="0.21" stop-opacity="0.32"/>
<stop offset="1" stop-opacity="0"/>
</linearGradient>
<linearGradient id="paint8_linear" x1="6419.6" y1="2173.64" x2="7795.39" y2="5432.32" gradientUnits="userSpaceOnUse">
<stop offset="0.01"/>
<stop offset="0.08" stop-opacity="0.69"/>
<stop offset="0.21" stop-opacity="0.32"/>
<stop offset="1" stop-opacity="0"/>
</linearGradient>
<linearGradient id="paint9_linear" x1="8404.71" y1="8923.55" x2="21885.5" y2="15941.3" gradientUnits="userSpaceOnUse">
<stop offset="0.01"/>
<stop offset="0.08" stop-opacity="0.69"/>
<stop offset="0.21" stop-opacity="0.32"/>
<stop offset="1" stop-opacity="0"/>
</linearGradient>
<linearGradient id="paint10_linear" x1="2647.98" y1="10596.1" x2="5535.91" y2="11720.3" gradientUnits="userSpaceOnUse">
<stop offset="0.01"/>
<stop offset="0.08" stop-opacity="0.69"/>
<stop offset="0.21" stop-opacity="0.32"/>
<stop offset="1" stop-opacity="0"/>
</linearGradient>
<linearGradient id="paint11_linear" x1="3510.41" y1="13606.1" x2="5943.34" y2="14840.5" gradientUnits="userSpaceOnUse">
<stop offset="0.01"/>
<stop offset="0.08" stop-opacity="0.69"/>
<stop offset="0.21" stop-opacity="0.32"/>
<stop offset="1" stop-opacity="0"/>
</linearGradient>
<clipPath id="clip0">
<rect width="353" height="301" fill="white"/>
</clipPath>
</defs>
</svg>
