<svg width="50" height="50" viewBox="0 0 50 50" fill="none" xmlns="http://www.w3.org/2000/svg">
<path d="M21.5016 13.1816L24.4883 4.87015L43.7564 13.8222" fill="#32BEA6"/>
<path d="M36.8277 50C40.1422 50 42.8291 47.3131 42.8291 43.9986C42.8291 40.6842 40.1422 37.9973 36.8277 37.9973C33.5133 37.9973 30.8264 40.6842 30.8264 43.9986C30.8264 47.3131 33.5133 50 36.8277 50Z" fill="black"/>
<path d="M18.7244 50C22.0389 50 24.7258 47.3131 24.7258 43.9986C24.7258 40.6842 22.0389 37.9973 18.7244 37.9973C15.4099 37.9973 12.723 40.6842 12.723 43.9986C12.723 47.3131 15.4099 50 18.7244 50Z" fill="black"/>
<path d="M14.2136 14.7808L10.27 3.11709H0.0664062V0H12.5074L17.1659 13.7824L14.2136 14.7808Z" fill="black"/>
<path d="M6.65216 12.1637H49.9336L41.6839 35.3099H13.8597L6.65216 12.1637Z" fill="#FF583E"/>
<path d="M41.2198 18.0932H16.2862V19.6556H41.2198V18.0932Z" fill="white"/>
<path d="M32.513 23.2391H16.2862V24.8016H32.513V23.2391Z" fill="white"/>
</svg>
