<svg width="353" height="313" viewBox="0 0 353 313" fill="none" xmlns="http://www.w3.org/2000/svg">
<g clip-path="url(#clip0)">
<path opacity="0.18" d="M296.08 61.59C288.14 43.77 276.33 27.16 259.91 16.65C246.97 8.41001 231.8 4.22 216.63 1.8C205.08 -0.0499961 193.18 -0.949996 181.74 1.47C155.74 6.98 136.27 28.54 121.74 50.8C107.21 73.06 95.24 97.63 75.52 115.46C63.52 126.3 49.18 134.13 35.96 143.46C22.74 152.79 10.18 164.16 4.24001 179.2C-1.53999 193.83 -0.419991 210.2 1.82001 225.78C4.54001 244.78 9.17001 264.32 21.6 278.91C39.81 300.29 70.09 306 97.96 309.48C113.08 311.36 128.3 312.99 143.52 312.29C169.82 311.07 195.29 302.95 221.37 299.29C253.13 294.85 288.43 296.06 313.07 275.53C325.53 265.15 333.49 250.38 339.97 235.53C350.19 212.09 357.51 185.41 349.33 161.2C342.81 141.9 328.33 130.74 315.43 116.25C309.63 109.76 309 101.05 306.77 92.78C304.018 82.1226 300.444 71.6947 296.08 61.59V61.59Z" fill="#C0BEBE"/>
<path d="M167.65 276.81C249.974 276.81 316.71 270.067 316.71 261.75C316.71 253.433 249.974 246.69 167.65 246.69C85.3264 246.69 18.59 253.433 18.59 261.75C18.59 270.067 85.3264 276.81 167.65 276.81Z" fill="url(#paint0_linear)"/>
<path d="M228.32 78.7C228.939 79.2124 229.679 79.5568 230.47 79.7C231.199 79.7303 231.926 79.6006 232.6 79.32L242.9 75.89C243.676 76.498 244.194 77.3759 244.352 78.3488C244.509 79.3217 244.294 80.3183 243.75 81.14C242.744 82.2605 241.429 83.0574 239.97 83.43L232.9 85.97C231.268 86.7367 229.485 87.1284 227.682 87.1163C225.879 87.1042 224.102 86.6886 222.48 85.9C220.37 85.2 218.06 84.33 217.05 82.35C216.04 80.37 216.77 77.74 216.47 75.42C216.27 73.91 215.6 72.42 215.64 70.94C215.64 69.64 216.7 67.68 218.26 67.94C219.6 68.17 220.49 70.5 221.2 71.48C223.184 74.2419 225.586 76.6778 228.32 78.7Z" fill="white"/>
<path d="M244.24 75.33C244.357 75.0556 244.523 74.8048 244.73 74.59C244.835 74.4845 244.969 74.4121 245.114 74.3819C245.26 74.3517 245.412 74.3649 245.55 74.42C245.686 74.5033 245.795 74.624 245.864 74.7676C245.933 74.9113 245.96 75.0718 245.94 75.23C245.925 75.3384 245.95 75.4486 246.01 75.54C246.06 75.5647 246.114 75.5775 246.17 75.5775C246.226 75.5775 246.28 75.5647 246.33 75.54C247.51 75.32 248.69 75.14 249.88 75.02C249.976 75.01 250.074 75.01 250.17 75.02C250.27 75.0506 250.363 75.101 250.444 75.1683C250.524 75.2356 250.59 75.3184 250.637 75.4117C250.685 75.505 250.713 75.607 250.721 75.7115C250.728 75.816 250.714 75.9209 250.68 76.02V76.02C250.551 76.412 250.358 76.7802 250.11 77.11C249.5 78.11 249.28 79.41 248.31 80.05C247.707 80.4028 247.004 80.5469 246.31 80.46C245.63 80.46 244.96 80.3 244.31 80.33C243.86 80.4296 243.39 80.3804 242.97 80.19C242.817 80.0738 242.695 79.9219 242.615 79.7475C242.535 79.5731 242.499 79.3816 242.51 79.19C242.581 78.5764 242.801 77.9893 243.15 77.48C243.49 76.78 243.84 76.06 244.24 75.33Z" fill="#FDB9A9"/>
<path d="M215.45 152.91C219.4 152.02 218.63 157.62 219.67 159.69C220.319 160.752 221.14 161.698 222.1 162.49C223.072 163.288 223.708 164.424 223.88 165.67C223.899 165.902 223.85 166.135 223.74 166.34C223.547 166.59 223.27 166.761 222.96 166.82C220.704 167.47 218.284 167.231 216.2 166.15C215.23 165.68 214.422 164.932 213.88 164C213.453 162.992 213.248 161.904 213.28 160.81C213.24 158.48 212.16 153.65 215.45 152.91Z" fill="#FDB9A9"/>
<path d="M218.94 164.41C218.94 164.41 230.18 164.89 225.42 168.41C220.66 171.93 213.56 167.55 212.87 166.74C212.18 165.93 212.74 164.56 212.74 164.56L218.94 164.41Z" fill="#E8610D"/>
<path d="M213.36 165.98C214.36 167.2 219.64 168.84 221.97 168.68C224.3 168.52 226.4 167.42 226.17 165.91C225.94 164.4 221.82 160.91 221.04 160.91C220.26 160.91 219.65 162.71 218.04 163.08C217.343 163.194 216.629 163.13 215.964 162.892C215.299 162.654 214.706 162.251 214.24 161.72C214.103 161.519 213.898 161.374 213.662 161.313C213.427 161.253 213.177 161.28 212.96 161.39C212.654 162.131 212.53 162.935 212.6 163.734C212.669 164.533 212.93 165.303 213.36 165.98V165.98Z" fill="white"/>
<path d="M201.91 155.12C205.91 154.21 205.09 159.8 206.13 161.88C206.777 162.946 207.602 163.893 208.57 164.68C209.539 165.48 210.17 166.615 210.34 167.86C210.364 168.092 210.315 168.327 210.2 168.53C210.01 168.781 209.731 168.949 209.42 169C207.166 169.659 204.744 169.422 202.66 168.34C201.69 167.87 200.882 167.122 200.34 166.19C199.911 165.183 199.71 164.094 199.75 163C199.66 160.64 198.62 155.82 201.91 155.12Z" fill="#FDB9A9"/>
<path d="M205.41 166.59C205.41 166.59 216.64 167.06 211.88 170.59C207.12 174.12 200.02 169.73 199.33 168.93C198.64 168.13 199.2 166.74 199.2 166.74L205.41 166.59Z" fill="#E8610D"/>
<path d="M199.82 168.12C200.82 169.35 206.1 170.98 208.43 170.82C210.76 170.66 212.86 169.56 212.63 168.05C212.4 166.54 208.28 163.05 207.51 163.05C206.74 163.05 206.11 164.85 204.51 165.22C203.813 165.334 203.099 165.27 202.434 165.032C201.769 164.794 201.176 164.391 200.71 163.86C200.574 163.661 200.37 163.518 200.137 163.458C199.903 163.397 199.656 163.423 199.44 163.53C199.131 164.27 199.004 165.073 199.07 165.871C199.136 166.67 199.393 167.441 199.82 168.12V168.12Z" fill="white"/>
<path d="M212.09 104.18L206.81 159.71L199.21 158.77C196.21 145.22 196.94 104.68 196.94 104.68L212.09 104.18Z" fill="#473F47"/>
<path d="M206.81 102.68L212.09 158.21L219.71 157.27C224.06 122.13 220.48 100.27 220.48 100.27L206.81 102.68Z" fill="#473F47"/>
<path d="M219.81 82.59C219.9 81.59 220.17 80.59 220.28 79.53C220.53 77.4345 220.49 75.3145 220.16 73.23C219.797 71.0102 219.124 68.8524 218.16 66.82C217.28 65.05 215.69 64.3 213.91 63.43C212.417 62.6193 210.797 62.0682 209.12 61.8C207.937 61.691 206.744 61.7584 205.58 62C202 62.68 197.27 64.53 194.82 67.36C192.98 69.48 192.82 72.52 192.71 75.36C192.63 79.24 192.71 83.1167 192.95 86.99C192.95 87.56 193.02 88.12 193.06 88.68C193.26 92.9774 193.9 97.243 194.97 101.41C195.35 102.7 195.75 103.99 196.97 104.68C199.78 106.31 204.07 105.42 207.1 104.99C211.1 104.42 215.25 103.83 218.81 101.88C219.559 101.56 220.164 100.977 220.51 100.24C220.684 99.3267 220.565 98.3816 220.17 97.54C218.96 93.54 219.9 89.4 219.9 85.35C219.9 84.62 219.81 83.87 219.81 83.13C219.795 82.9503 219.795 82.7697 219.81 82.59V82.59Z" fill="white"/>
<path opacity="0.1" d="M208.57 101.24C208.601 100.811 208.492 100.383 208.26 100.02C207.81 99.46 206.94 99.58 206.26 99.76L201.73 100.88C200.03 101.3 197.4 102.98 196.96 104.68C195.22 103.46 194.77 101.41 194.45 99.31C194.13 97.21 194.11 93.12 193.73 91.03C195.925 92.6099 198.537 93.5073 201.24 93.61C203.81 93.67 207.04 93.61 207.97 90.8C209.04 87.56 209.42 84.16 210.13 80.8C210.148 80.6395 210.222 80.4906 210.34 80.38C210.458 80.3014 210.6 80.2694 210.74 80.29L220.51 80.4C220.661 80.3864 220.813 80.4141 220.95 80.48C221.24 80.65 221.24 81.06 221.19 81.38C220.823 83.5878 219.716 85.605 218.05 87.1C217.674 87.3488 217.35 87.6695 217.098 88.0436C216.846 88.4176 216.67 88.8378 216.58 89.28C216.4 90.5 216.45 91.8 216.32 93.03C216.109 95.6355 215.54 98.1995 214.63 100.65C213.24 104.18 208.83 106.9 208.57 101.24Z" fill="#020202"/>
<path d="M211.23 104.05H225.77L227.57 81.45H213.03L211.23 104.05Z" fill="#E8610D"/>
<path d="M212.07 56.22C212.062 55.1574 211.999 54.096 211.88 53.04C211.77 52.04 211.63 51.18 211.45 50.27C211.44 49.9977 211.372 49.7307 211.249 49.4873C211.127 49.2439 210.953 49.0299 210.74 48.86C209.313 47.9908 207.671 47.5403 206 47.56C205.368 47.5197 204.735 47.6098 204.14 47.8249C203.545 48.04 203 48.3753 202.54 48.81C201.95 49.5276 201.6 50.4127 201.54 51.34C201.28 53.67 201.89 55.99 202.23 58.34C202.493 60.1372 202.587 61.9552 202.51 63.77C203.39 64.3377 204.396 64.6811 205.44 64.77C205.93 64.7626 206.416 64.6782 206.88 64.52C206.998 64.5178 207.113 64.4868 207.216 64.4297C207.319 64.3727 207.406 64.2912 207.47 64.1925C207.535 64.0938 207.574 63.9809 207.584 63.8637C207.594 63.7464 207.576 63.6284 207.53 63.52C207.52 63.3301 207.52 63.1399 207.53 62.95V62.95C207.45 61.8871 207.47 60.8191 207.59 59.76C207.59 59.6717 207.622 59.5862 207.68 59.52C207.752 59.5 207.828 59.5 207.9 59.52H208.2C208.729 59.57 209.261 59.57 209.79 59.52C210.422 59.4519 211.008 59.157 211.44 58.69C211.967 57.9818 212.194 57.0942 212.07 56.22V56.22Z" fill="#FDB9A9"/>
<path d="M209.92 49.41C210.3 49.48 210.62 49.61 210.92 49.41C211.257 49.118 211.553 48.7816 211.8 48.41C212.389 47.6188 212.68 46.6447 212.62 45.66C212.611 45.2163 212.479 44.7837 212.24 44.41C211.972 44.0836 211.629 43.8263 211.24 43.66C210.475 43.2903 209.628 43.1217 208.78 43.17C207.544 43.3309 206.392 43.8808 205.49 44.74C205.3 44.9421 205.068 45.0992 204.81 45.2C204.573 45.2499 204.327 45.2499 204.09 45.2C202.521 45.0645 200.961 45.5451 199.74 46.54C199.113 47.2168 198.445 47.8547 197.74 48.45C196.96 48.98 196.32 49.19 195.94 49.86C195.787 50.1808 195.726 50.538 195.765 50.8913C195.804 51.2446 195.941 51.5801 196.16 51.86C196.628 52.3893 197.263 52.7423 197.96 52.86C197.807 53.2579 197.817 53.7003 197.99 54.0902C198.162 54.4802 198.482 54.7858 198.88 54.94H198.96C199.244 54.9798 199.519 55.0713 199.77 55.21C199.94 55.34 200.02 55.55 200.19 55.69C200.6 56.02 201.13 56.14 201.3 56.69C201.349 56.9336 201.372 57.1816 201.37 57.43C201.396 57.8004 201.544 58.1519 201.79 58.43C201.95 58.6 202.23 59.04 202.47 59.08C202.71 59.12 202.91 58.85 202.99 58.61C203.279 57.5556 203.201 56.4346 202.77 55.43C202.47 54.9393 202.291 54.3838 202.25 53.81C202.31 53.25 203.08 52.81 203.45 53.13C203.82 53.45 203.89 54.28 204.34 54.13C204.062 53.3288 204.082 52.4543 204.396 51.6666C204.71 50.8788 205.297 50.2304 206.05 49.84C206.882 49.5857 207.75 49.4642 208.62 49.48C209.035 49.3983 209.457 49.3514 209.88 49.34L209.92 49.41Z" fill="#473F47"/>
<path d="M208.24 59.49C207.009 59.2552 205.806 58.8933 204.65 58.41C204.547 59.3863 204.783 60.3683 205.319 61.1912C205.854 62.0141 206.656 62.628 207.59 62.93V62.93C207.518 61.8667 207.542 60.7991 207.66 59.74C207.658 59.6513 207.69 59.5652 207.75 59.5C207.785 59.4851 207.822 59.4775 207.86 59.4775C207.898 59.4775 207.935 59.4851 207.97 59.5H208.24V59.49Z" fill="#DE9F93"/>
<path d="M190.24 80.67L188.51 88.25C188.195 89.1538 188.174 90.1341 188.451 91.0503C188.728 91.9665 189.287 92.7716 190.05 93.35C191.033 94.6588 192.271 95.7543 193.69 96.57C194.678 97.0076 195.726 97.2909 196.8 97.41C199.628 97.8413 202.492 97.9987 205.35 97.88C205.577 97.8872 205.803 97.8427 206.01 97.75C206.217 97.6234 206.386 97.4439 206.5 97.23C207.508 95.7209 208.371 94.1205 209.08 92.45C206.786 90.9035 204.266 89.7228 201.61 88.95C201.074 88.8486 200.577 88.6031 200.17 88.24C199.898 87.9058 199.718 87.5057 199.65 87.08C198.53 82.23 201.13 76.83 199.04 72.31C197.86 69.74 195.33 66.97 193.47 70.42C191.78 73.56 191.03 77.22 190.24 80.67Z" fill="white"/>
<path d="M211.06 92.51C211.373 92.2699 211.708 92.0591 212.06 91.88C212.232 91.7864 212.424 91.7373 212.62 91.7373C212.816 91.7373 213.008 91.7864 213.18 91.88C213.34 91.99 213.46 92.17 213.64 92.23C213.765 92.2601 213.895 92.2601 214.02 92.23L216.33 92C216.513 91.9548 216.703 91.952 216.887 91.9919C217.07 92.0317 217.243 92.1132 217.39 92.23C217.69 92.58 217.51 93.11 217.31 93.51C216.708 94.7157 216.04 95.8874 215.31 97.02C215.172 97.248 215.003 97.4565 214.81 97.64C214.543 97.8403 214.236 97.9802 213.91 98.05C212.718 98.3261 211.474 98.2743 210.31 97.9C209.154 97.5216 208.076 96.9353 207.13 96.17C206.986 96.0762 206.864 95.9536 206.77 95.81C206.678 95.6403 206.623 95.4527 206.61 95.26C206.5 94.37 206.78 92.92 207.94 92.99C209.004 93.1996 210.108 93.0297 211.06 92.51V92.51Z" fill="#FDB9A9"/>
<path d="M308.37 123.16H259.3V261.75H308.37V123.16Z" fill="#E8610D"/>
<path d="M230.6 168.71H181.53V261.75H230.6V168.71Z" fill="#E8610D"/>
<path d="M156.83 200.77H107.76V261.75H156.83V200.77Z" fill="#E8610D"/>
<path d="M308.37 123.16H259.3V261.75H308.37V123.16Z" fill="url(#paint1_linear)"/>
<path d="M230.6 168.71H181.53V261.75H230.6V168.71Z" fill="url(#paint2_linear)"/>
<path d="M156.83 200.77H107.76V261.75H156.83V200.77Z" fill="url(#paint3_linear)"/>
<path d="M67.31 160.14C69.72 157.3 73.05 158.77 75.7 160.36C77.13 161.21 78.24 162.76 79.5 163.88C80.9865 165.207 82.571 166.421 84.24 167.51C84.5916 167.751 84.9629 167.962 85.35 168.14C86.1129 168.44 86.914 168.632 87.73 168.71L93.19 169.47C94.9136 169.793 96.6734 169.877 98.42 169.72C99.3992 169.471 100.412 169.379 101.42 169.45C102.87 169.71 103.21 170.85 103.35 172.12C103.49 173.39 103.62 173.65 102.51 174.12C100.999 174.503 99.4557 174.748 97.9 174.85C96.46 175.11 95.02 175.4 93.6 175.77C92.2644 176.179 90.8907 176.45 89.5 176.58C86.4 176.73 83.5 175.2 80.78 173.72L70.46 168.1C67.74 166.6 64.72 163.21 67.31 160.14Z" fill="#E8610D"/>
<path d="M67.31 160.14C69.72 157.3 73.05 158.77 75.7 160.36C77.13 161.21 78.24 162.76 79.5 163.88C80.9865 165.207 82.571 166.421 84.24 167.51C84.5916 167.751 84.9629 167.962 85.35 168.14C86.1129 168.44 86.914 168.632 87.73 168.71L93.19 169.47C94.9136 169.793 96.6734 169.877 98.42 169.72C99.3992 169.471 100.412 169.379 101.42 169.45C102.87 169.71 103.21 170.85 103.35 172.12C103.49 173.39 103.62 173.65 102.51 174.12C100.999 174.503 99.4557 174.748 97.9 174.85C96.46 175.11 95.02 175.4 93.6 175.77C92.2644 176.179 90.8907 176.45 89.5 176.58C86.4 176.73 83.5 175.2 80.78 173.72L70.46 168.1C67.74 166.6 64.72 163.21 67.31 160.14Z" fill="url(#paint4_linear)"/>
<path d="M102.94 169.41C102.59 169.61 102.04 169.63 101.74 169.93C101.44 170.23 101.44 171.01 101.38 171.42C101.311 171.717 101.35 172.029 101.49 172.3C101.591 172.424 101.712 172.529 101.85 172.61C102.589 173.207 103.439 173.652 104.35 173.92C105.601 174.113 106.879 173.858 107.96 173.2C109.671 172.331 110.999 170.86 111.69 169.07C111.84 168.62 111.88 168 111.45 167.78C111.157 167.691 110.842 167.719 110.57 167.86C108.996 168.43 107.334 168.721 105.66 168.72C105.832 168.322 105.857 167.875 105.73 167.46C104.6 167.76 103.91 168.79 102.94 169.41Z" fill="#FCBDBA"/>
<path d="M114.13 163.8V181.8C114.13 182.9 113.6 183.8 112.95 183.8H96.95C96.3 183.8 95.78 182.91 95.78 181.8V163.8C95.78 162.7 96.3 161.8 96.95 161.8H112.95C113.6 161.81 114.13 162.7 114.13 163.8Z" fill="#E8610D"/>
<path d="M114.13 163.8V181.8C114.13 182.9 113.6 183.8 112.95 183.8H96.95C96.3 183.8 95.78 182.91 95.78 181.8V163.8C95.78 162.7 96.3 161.8 96.95 161.8H112.95C113.6 161.81 114.13 162.7 114.13 163.8Z" fill="#E8610D"/>
<path d="M50.24 209.18C50.24 209.18 65.52 227.18 68.24 230.72C70.96 234.26 70.98 255.21 70.98 255.21H77.44C77.44 255.21 77.65 234.44 75.44 227.39C73.23 220.34 61.35 197.92 61.35 197.92L50.24 209.18Z" fill="#473F47"/>
<path d="M42.85 201.41C42.85 201.41 44.85 222.14 45.63 227.55C46.41 232.96 32.31 251.47 32.31 251.47L37.8 254.41C37.8 254.41 47.98 242.7 51.71 236.2C55.44 229.7 62.62 200.65 62.62 200.65C52.78 196.01 42.85 201.41 42.85 201.41Z" fill="#473F47"/>
<path d="M75.89 170.41C74.13 174.3 71.44 177.53 69.73 181.41C67.32 186.9 63.85 191.7 63.25 197.85C63.11 199.25 63.05 200.85 61.98 201.77C61.4347 202.188 60.8025 202.479 60.13 202.62C57.5408 203.352 54.9047 203.907 52.24 204.28C50.5907 204.588 48.903 204.632 47.24 204.41C45.5442 204.163 44.0157 203.253 42.99 201.88C42.503 201.073 42.1925 200.172 42.0787 199.236C41.965 198.3 42.0506 197.35 42.33 196.45C43.18 193.27 45.19 190.97 47.54 188.78C50.54 185.95 51.88 180.48 53.2 176.71C54.13 174.05 55 171.37 55.89 168.71C56.97 165.46 58.73 163.63 61.04 161.08C62.4395 159.264 64.2129 157.771 66.24 156.7C67.4741 156.164 68.8226 155.944 70.163 156.061C71.5035 156.178 72.7935 156.628 73.916 157.37C75.0385 158.112 75.9579 159.123 76.5907 160.31C77.2236 161.498 77.5499 162.824 77.54 164.17C77.4878 165.38 77.2725 166.578 76.9 167.73C76.6289 168.647 76.2914 169.542 75.89 170.41V170.41Z" fill="#E8610D"/>
<path d="M77 138.35C75.11 136.47 71.69 137.35 69.5 138.06C68.868 138.22 68.262 138.47 67.7 138.8C66.9351 139.33 66.3133 140.041 65.89 140.87C65.3706 141.744 65.0306 142.713 64.89 143.72C64.7297 145.069 64.8802 146.438 65.33 147.72C65.8285 148.573 66.2406 149.475 66.56 150.41C67.13 152.97 67.71 155.53 68.27 158.1C68.3021 158.329 68.3993 158.544 68.55 158.72C68.7026 158.831 68.882 158.9 69.07 158.92C70.3855 159.188 71.729 159.292 73.07 159.23C73.3006 159.242 73.5307 159.198 73.74 159.1C73.9511 158.952 74.1202 158.751 74.2306 158.518C74.3411 158.285 74.3891 158.027 74.37 157.77C74.44 157 74.31 156.23 74.37 155.46C74.3796 154.819 74.642 154.208 75.1 153.76C75.702 153.432 76.3599 153.218 77.04 153.13C77.7079 152.95 78.3046 152.569 78.75 152.04C79.94 150.49 79.04 148.1 80.03 146.39C80.2512 146.116 80.3961 145.788 80.45 145.44C80.45 144.98 80.03 144.64 79.7 144.31C78.04 142.63 78.56 139.93 77 138.35Z" fill="#FCBDBA"/>
<path d="M70.05 147.69C69.7702 147.347 69.5597 146.953 69.43 146.53C69.359 146.312 69.2271 146.119 69.0499 145.974C68.8727 145.828 68.6576 145.737 68.43 145.71C68.2384 145.732 68.0571 145.808 67.9081 145.931C67.759 146.053 67.6486 146.216 67.59 146.4C67.4914 146.697 67.4618 147.013 67.5034 147.323C67.545 147.633 67.6567 147.929 67.83 148.19C68.1788 148.71 68.5997 149.178 69.08 149.58L68.48 151.09C68.4203 151.274 68.3289 151.447 68.21 151.6C68.0403 151.763 67.8295 151.877 67.6 151.93C67.133 152.005 66.6546 151.958 66.2112 151.793C65.7679 151.628 65.3747 151.352 65.07 150.99C64.4803 150.255 64.0235 149.422 63.72 148.53L62.72 145.94C62.21 144.69 63 144.21 62.95 143.04C62.8976 142.85 62.813 142.671 62.7 142.51C62.4288 141.947 62.288 141.33 62.288 140.705C62.288 140.08 62.4288 139.463 62.7 138.9C62.8821 138.451 63.1786 138.058 63.56 137.76C63.846 137.572 64.1598 137.43 64.49 137.34C66.03 136.84 67.64 136.58 69.19 136.14C70.8043 135.582 72.4466 135.108 74.11 134.72C75.7961 134.351 77.5599 134.659 79.02 135.58C79.2625 135.724 79.4664 135.925 79.6144 136.166C79.7624 136.406 79.8501 136.678 79.87 136.96C79.7806 137.447 79.5307 137.891 79.16 138.22C77.7381 139.8 75.9021 140.95 73.86 141.54C72.86 141.83 71.24 141.82 70.65 142.88C69.98 144.1 70.24 146.32 70.05 147.69Z" fill="#FC682D"/>
<path d="M69.67 160.33C72.92 158.51 75.52 161.05 77.45 163.46C78.45 164.76 78.99 166.61 79.78 168.1C80.7096 169.86 81.7692 171.548 82.95 173.15C83.1916 173.505 83.4626 173.84 83.76 174.15C84.3582 174.699 85.0316 175.161 85.76 175.52L90.6 178.14C92.1049 179.044 93.7267 179.737 95.42 180.2C96.4169 180.309 97.3895 180.58 98.3 181C99.57 181.75 99.49 182.93 99.17 184.17C98.85 185.41 98.9 185.7 97.7 185.72C96.1504 185.536 94.6185 185.225 93.12 184.79C91.7 184.53 90.24 184.31 88.78 184.15C87.3847 184.063 86.0014 183.838 84.65 183.48C81.65 182.48 79.52 180.08 77.48 177.74L69.79 168.86C67.81 166.52 66.17 162.29 69.67 160.33Z" fill="#E8610D"/>
<path d="M99.8 181.49C99.4 181.55 98.87 181.37 98.49 181.55C98.11 181.73 97.83 182.46 97.63 182.83C97.4607 183.079 97.3895 183.382 97.43 183.68C97.4791 183.831 97.5535 183.973 97.65 184.1C98.1372 184.916 98.7793 185.63 99.54 186.2C100.642 186.82 101.928 187.029 103.17 186.79C105.078 186.582 106.84 185.669 108.11 184.23C108.41 183.86 108.66 183.29 108.34 182.94C108.221 182.845 108.085 182.776 107.939 182.734C107.793 182.693 107.641 182.681 107.49 182.7C105.813 182.684 104.151 182.376 102.58 181.79C102.88 181.479 103.06 181.071 103.09 180.64C101.93 180.51 100.92 181.23 99.8 181.49Z" fill="#FCBDBA"/>
<path d="M32.33 251.7C33.74 251.7 37.14 252.99 37.83 254.27C38.0298 254.745 38.1319 255.255 38.13 255.77C38.271 257.276 38.7385 258.733 39.5 260.04C40.06 261.04 40.77 262.3 40.1 263.14C39.43 263.98 38.1 263.66 37.1 263.21C33.586 261.557 30.4194 259.249 27.77 256.41C27.6825 256.352 27.6076 256.278 27.55 256.19C27.4113 255.98 27.3569 255.725 27.3977 255.477C27.4385 255.229 27.5714 255.005 27.77 254.85C28.91 253.52 30.46 251.69 32.33 251.7Z" fill="#E8610D"/>
<path d="M71.24 254.81C72.47 254.1 76.08 253.57 77.31 254.34C77.7199 254.649 78.0606 255.041 78.31 255.49C79.1884 256.709 80.3126 257.731 81.61 258.49C82.61 259.05 83.84 259.81 83.68 260.88C83.52 261.95 82.19 262.33 81.12 262.42C77.2367 262.737 73.3287 262.302 69.61 261.14C69.4956 261.129 69.384 261.099 69.28 261.05C69.1689 260.996 69.0696 260.92 68.9879 260.827C68.9061 260.734 68.8434 260.626 68.8035 260.509C68.7635 260.392 68.7471 260.268 68.7551 260.145C68.7631 260.022 68.7953 259.901 68.85 259.79V259.79C69.16 258.1 69.59 255.74 71.24 254.81Z" fill="#E8610D"/>
<path d="M98.76 107.88C99.7799 106.442 101.292 105.428 103.01 105.03C104.092 104.727 105.225 104.654 106.336 104.818C107.447 104.982 108.512 105.378 109.46 105.98C109.699 106.197 110.007 106.321 110.33 106.33C110.534 106.278 110.722 106.179 110.88 106.04C112.404 104.96 114.277 104.489 116.13 104.72C118.36 104.99 119.3 106.5 120.73 108.07C120.868 107.809 121.064 107.583 121.304 107.409C121.543 107.236 121.819 107.12 122.11 107.07C122.692 106.97 123.288 106.97 123.87 107.07C124.776 107.125 125.656 107.393 126.44 107.85C127.66 108.7 128.08 110.28 128.92 111.52C128.949 111.58 128.991 111.632 129.043 111.674C129.095 111.715 129.155 111.745 129.22 111.76C129.34 111.748 129.451 111.691 129.53 111.6C129.761 111.273 130.015 110.962 130.29 110.67C130.673 110.405 131.136 110.283 131.6 110.323C132.063 110.363 132.498 110.564 132.83 110.89C133.472 111.562 133.969 112.358 134.29 113.23C134.614 114.103 135.188 114.861 135.94 115.41C136.518 115.72 137.149 115.92 137.8 116C139.687 116.25 141.43 117.139 142.74 118.52C143.339 119.219 143.669 120.109 143.67 121.03C143.662 121.487 143.535 121.933 143.302 122.326C143.069 122.719 142.737 123.044 142.34 123.27C140.44 124.27 138.12 122.27 136.06 122.84C134 123.41 130.77 122.79 128.62 122.01C126.88 121.37 125.03 120.53 123.25 121.01C122.703 121.25 122.123 121.408 121.53 121.48C121.088 121.452 120.657 121.337 120.26 121.14C119.038 120.683 117.894 120.038 116.87 119.23C114.93 117.59 113.87 114.97 111.58 113.8C110.925 113.463 110.206 113.268 109.471 113.226C108.735 113.185 107.999 113.299 107.31 113.56C106.73 113.79 106.2 114.12 105.61 114.33C104.922 114.569 104.198 114.691 103.47 114.69C102.575 114.768 101.674 114.65 100.83 114.344C99.9852 114.039 99.2175 113.553 98.58 112.92C97.4 111.56 97.81 109.31 98.76 107.88Z" fill="#473F47"/>
<path d="M96.24 113.41C95.8582 113.983 95.6937 114.674 95.7762 115.358C95.8587 116.042 96.1828 116.674 96.69 117.14C97.1769 117.458 97.7256 117.669 98.3 117.76L101.71 118.57L100.44 115.11C100.135 114.49 100.054 113.783 100.21 113.11C100.368 112.763 100.617 112.465 100.93 112.246C101.243 112.028 101.609 111.898 101.99 111.87C102.749 111.83 103.511 111.83 104.27 111.87C104.374 111.88 104.48 111.863 104.576 111.821C104.672 111.779 104.756 111.713 104.82 111.63C104.93 111.39 104.7 111.12 104.48 110.96C101.76 109.03 97.81 110.77 96.24 113.41Z" fill="#473F47"/>
<path d="M129.56 191.67C129.77 192.85 129.649 194.065 129.21 195.18C128.5 196.73 126.95 197.69 125.77 198.92C125.641 199.025 125.538 199.158 125.467 199.309C125.396 199.459 125.359 199.624 125.36 199.79C125.406 199.941 125.494 200.075 125.615 200.176C125.736 200.278 125.883 200.341 126.04 200.36C126.354 200.381 126.669 200.329 126.96 200.21C128.339 199.654 129.748 199.177 131.18 198.78C131.9 198.63 132.75 198.49 133.08 197.84C133.261 197.292 133.228 196.696 132.99 196.17C132.378 194.132 132.062 192.017 132.05 189.89C132.088 189.363 132.023 188.833 131.86 188.33C131.78 188.158 131.666 188.004 131.526 187.877C131.386 187.749 131.222 187.65 131.043 187.586C130.865 187.522 130.676 187.494 130.486 187.503C130.297 187.512 130.111 187.559 129.94 187.64C129.73 187.737 129.548 187.885 129.41 188.07C128.75 188.98 129.44 190.68 129.56 191.67Z" fill="#FCBDBA"/>
<path d="M154.48 193.98C154.923 195.094 155.048 196.309 154.84 197.49C154.46 199.16 153.13 200.4 152.22 201.85C152.116 201.981 152.043 202.133 152.005 202.295C151.967 202.458 151.965 202.627 152 202.79C152.072 202.93 152.186 203.044 152.326 203.118C152.465 203.191 152.624 203.22 152.78 203.2C153.091 203.156 153.388 203.044 153.65 202.87C154.886 202.051 156.168 201.303 157.49 200.63C158.17 200.33 158.98 200.02 159.17 199.31C159.231 198.739 159.078 198.165 158.74 197.7C157.728 195.814 156.991 193.794 156.55 191.7C156.479 191.176 156.31 190.67 156.05 190.21C155.821 189.909 155.484 189.71 155.109 189.655C154.735 189.601 154.355 189.696 154.05 189.92C153.867 190.061 153.72 190.242 153.62 190.45C153.14 191.52 154.16 193.04 154.48 193.98Z" fill="#FCBDBA"/>
<path d="M145.85 136.74C145.85 136.74 138.09 157.21 131.52 164.32C132.081 166.049 132.459 167.832 132.65 169.64C132.92 172.64 132.12 175.43 132.33 178.35L133.05 188.14C133.05 188.59 133.05 189.14 132.71 189.37C132.47 189.493 132.197 189.538 131.93 189.5L128.43 189.37C127.299 183.626 125.843 177.95 124.07 172.37C123.268 170.139 122.672 167.84 122.29 165.5C121.65 160.36 124.71 154.96 126.6 150.29C127.75 147.47 128.74 143.42 130.7 141.03C132.34 139.03 135.33 139.09 137.89 138.75C139.818 138.5 141.688 137.922 143.42 137.04C143.77 136.797 144.175 136.642 144.598 136.59C145.021 136.538 145.451 136.589 145.85 136.74V136.74Z" fill="#473F47"/>
<path d="M150.35 135.57C150.35 135.57 150.61 157.46 147.09 166.47C148.238 167.88 149.243 169.401 150.09 171.01C150.713 172.35 151.218 173.742 151.6 175.17L156.72 192.29C155.099 192.765 153.405 192.945 151.72 192.82L142.03 178.93C140.321 176.777 139.025 174.325 138.21 171.7C136.95 166.49 137.53 146.26 137.89 145.16C138.68 142.7 141.49 141.67 143.75 140.41C145.45 139.471 146.978 138.25 148.27 136.8C148.85 136.11 149.43 135.5 150.35 135.57Z" fill="#473F47"/>
<path d="M116.62 150.19C115.946 152.984 114.493 155.529 112.43 157.53C111.748 158.03 111.181 158.671 110.77 159.41C111.42 159.41 112.28 159.67 112.26 160.32C112.239 160.514 112.17 160.699 112.06 160.86C111.696 161.452 111.2 161.952 110.61 162.32C110.298 162.473 110.024 162.696 109.81 162.97C109.681 163.258 109.67 163.585 109.781 163.881C109.891 164.177 110.114 164.417 110.4 164.55C110.992 164.78 111.648 164.78 112.24 164.55C113.247 164.23 114.149 163.645 114.853 162.857C115.556 162.069 116.035 161.106 116.24 160.07C116.35 159.46 116.37 158.84 116.48 158.23C116.76 157.096 117.202 156.009 117.79 155C119.342 151.931 120.659 148.748 121.73 145.48C121.948 145.029 122.07 144.537 122.089 144.036C122.108 143.536 122.023 143.037 121.84 142.57C120.98 141.04 118.11 140.29 117.74 142.46C117.3 145.06 117.31 147.64 116.62 150.19Z" fill="#FCBDBA"/>
<path d="M103.29 145.03C101.868 147.521 99.7708 149.56 97.24 150.91C96.4495 151.202 95.7301 151.658 95.13 152.25C95.74 152.45 96.5 152.92 96.3 153.54C96.2288 153.72 96.1116 153.879 95.96 154C95.44 154.46 94.8256 154.802 94.16 155C93.7992 155.05 93.456 155.188 93.16 155.4C92.956 155.638 92.8542 155.947 92.8766 156.26C92.8991 156.572 93.0441 156.864 93.28 157.07C93.7737 157.473 94.4053 157.667 95.04 157.61C96.097 157.586 97.1281 157.278 98.0253 156.718C98.9225 156.159 99.6528 155.368 100.14 154.43C100.41 153.88 100.6 153.29 100.88 152.74C101.467 151.732 102.191 150.81 103.03 150C105.377 147.496 107.536 144.822 109.49 142C109.822 141.624 110.074 141.185 110.23 140.709C110.387 140.232 110.444 139.729 110.4 139.23C110.01 137.52 107.46 136 106.5 137.98C105.38 140.29 104.67 142.77 103.29 145.03Z" fill="#FCBDBA"/>
<path d="M111 128.33C109.33 132.562 106.866 136.435 103.74 139.74C103.61 139.89 103.46 140.09 103.53 140.28C103.594 140.395 103.697 140.484 103.82 140.53C105.624 141.5 107.547 142.23 109.54 142.7C109.773 142.77 110.018 142.79 110.26 142.76C110.678 142.61 111.019 142.301 111.21 141.9C112.897 139.3 114.46 136.633 115.9 133.9C117.271 131.601 118.128 129.032 118.41 126.37C118.52 125.006 118.19 123.643 117.47 122.48C116.62 121.23 113.9 119.81 112.78 121.48C112.374 122.432 112.134 123.447 112.07 124.48C111.796 125.785 111.438 127.071 111 128.33V128.33Z" fill="#E8610D"/>
<path d="M111 128.33C109.33 132.562 106.866 136.435 103.74 139.74C103.61 139.89 103.46 140.09 103.53 140.28C103.594 140.395 103.697 140.484 103.82 140.53C105.624 141.5 107.547 142.23 109.54 142.7C109.773 142.77 110.018 142.79 110.26 142.76C110.678 142.61 111.019 142.301 111.21 141.9C112.897 139.3 114.46 136.633 115.9 133.9C117.271 131.601 118.128 129.032 118.41 126.37C118.52 125.006 118.19 123.643 117.47 122.48C116.62 121.23 113.9 119.81 112.78 121.48C112.374 122.432 112.134 123.447 112.07 124.48C111.796 125.785 111.438 127.071 111 128.33V128.33Z" fill="url(#paint5_linear)"/>
<path d="M150.35 135.57C150.32 135.923 150.211 136.265 150.03 136.57C149.403 137.918 148.678 139.219 147.86 140.46C145.667 143.58 142.439 145.823 138.75 146.79C137.283 147.179 135.767 147.351 134.25 147.3C133.697 147.309 133.148 147.2 132.64 146.98C131.919 146.539 131.34 145.9 130.97 145.14C128.74 141.43 126.56 137.51 123.53 134.51C122.505 133.474 121.356 132.567 120.11 131.81C118.32 130.72 116.3 129.98 114.76 128.57C113.866 127.726 113.165 126.697 112.706 125.556C112.247 124.415 112.04 123.188 112.1 121.96C112.23 119.26 113.64 115.96 116.39 115.19C119.614 114.357 123.011 114.489 126.16 115.57C129.629 116.81 132.902 118.541 135.88 120.71C137.1 121.53 138.3 122.36 139.44 123.28C142.094 125.584 144.543 128.113 146.76 130.84L149.63 134.18C150.027 134.543 150.282 135.036 150.35 135.57Z" fill="#E8610D"/>
<path d="M138.75 146.79C137.283 147.179 135.767 147.351 134.25 147.3C133.697 147.309 133.148 147.2 132.64 146.98C131.919 146.539 131.34 145.9 130.97 145.14C128.74 141.43 126.56 137.51 123.53 134.51C123.66 133.79 123.86 133.08 124.06 132.38C124.51 130.77 124.82 128.02 126.41 127.06C127.171 128.937 128.029 130.772 128.98 132.56C129.91 134.34 131.18 135.99 132.06 137.78C133.724 140.884 135.829 143.73 138.31 146.23C138.473 146.403 138.62 146.591 138.75 146.79Z" fill="url(#paint6_linear)"/>
<path d="M116.37 142.14C116.29 142.346 116.29 142.574 116.37 142.78C116.485 142.957 116.664 143.083 116.87 143.13C118.773 143.799 120.784 144.111 122.8 144.05C123.007 144.07 123.214 144.021 123.39 143.91C123.575 143.758 123.699 143.545 123.74 143.31C124.74 140.24 125.65 137.17 126.57 134.09C127.233 132.226 127.598 130.268 127.65 128.29C127.549 126.611 127.212 124.955 126.65 123.37C125.13 118.55 120.16 119.51 119.65 124.16C118.93 130.41 118.49 136.19 116.37 142.14Z" fill="#E8610D"/>
<path d="M133.24 197.98C133.297 197.797 133.285 197.6 133.208 197.425C133.13 197.251 132.992 197.11 132.819 197.029C132.645 196.949 132.448 196.934 132.265 196.987C132.081 197.041 131.923 197.159 131.82 197.32C131.128 197.868 130.389 198.354 129.61 198.77C128.825 199.187 127.914 199.301 127.05 199.09C126.598 198.853 126.087 198.756 125.58 198.81C125.349 198.91 125.138 199.052 124.96 199.23C124.308 199.803 123.569 200.269 122.77 200.61C122.424 200.717 122.111 200.91 121.86 201.17C121.784 201.248 121.738 201.351 121.73 201.46C121.73 201.73 122.07 201.85 122.33 201.89C125.17 202.29 127.98 201.23 130.68 200.28C130.981 200.159 131.297 200.081 131.62 200.05C132.1 200.05 132.71 200.13 133.02 199.66C133.232 199.127 133.308 198.55 133.24 197.98V197.98Z" fill="#473F47"/>
<path d="M159.54 199.32C159.545 199.148 159.505 198.977 159.424 198.824C159.344 198.672 159.225 198.543 159.08 198.45C158.72 198.3 158.33 198.58 158.08 198.84C157.461 199.466 156.792 200.041 156.08 200.56C155.348 201.069 154.455 201.293 153.57 201.19C153.094 201.011 152.574 200.98 152.08 201.1C151.861 201.222 151.67 201.389 151.52 201.59C150.943 202.238 150.268 202.791 149.52 203.23C149.189 203.38 148.9 203.61 148.68 203.9C148.616 203.99 148.584 204.099 148.59 204.21C148.59 204.47 148.97 204.55 149.24 204.55C152.1 204.6 154.76 203.2 157.32 201.92C157.605 201.763 157.912 201.648 158.23 201.58C158.7 201.49 159.32 201.52 159.57 201.02C159.7 200.46 159.69 199.876 159.54 199.32V199.32Z" fill="#473F47"/>
<path d="M103.02 119.41C103.6 119.86 104.19 120.31 104.75 120.79C105.527 121.551 106.363 122.25 107.25 122.88C107.693 123.196 108.201 123.411 108.737 123.51C109.272 123.608 109.823 123.588 110.35 123.45C110.869 123.286 111.304 122.928 111.567 122.452C111.829 121.975 111.898 121.416 111.76 120.89C112.34 120.65 112.96 121.15 113.32 121.67C113.68 122.19 114.03 122.81 114.64 122.97C115.51 123.2 116.27 122.32 116.64 121.48C117.129 120.19 117.225 118.784 116.918 117.439C116.61 116.093 115.911 114.869 114.91 113.92C112.75 111.92 110.79 109.13 108.03 108.05C107.069 107.706 106.05 107.554 105.03 107.6C104.099 107.587 103.178 107.803 102.35 108.23C101.796 108.573 101.291 108.99 100.85 109.47C98.85 111.41 97.24 113.06 99.03 115.63C100.157 117.088 101.503 118.363 103.02 119.41V119.41Z" fill="#FCBDBA"/>
<path d="M102.84 113.31C103.19 113.06 103.53 112.7 103.96 112.71C104.39 112.72 104.77 113.16 105.19 113.37C106.05 113.8 107.05 113.24 108 113.1C108.58 113.032 109.167 113.126 109.696 113.371C110.226 113.617 110.677 114.004 111 114.49C110.778 114.2 110.639 113.854 110.6 113.49C110.6 113.11 110.93 112.72 111.3 112.78C111.473 112.829 111.626 112.931 111.74 113.07C111.979 113.35 112.143 113.685 112.216 114.046C112.29 114.406 112.27 114.779 112.16 115.13C112.694 115.427 113.301 115.565 113.911 115.528C114.52 115.49 115.106 115.28 115.6 114.92C115.886 114.752 116.104 114.488 116.214 114.175C116.324 113.862 116.319 113.52 116.2 113.21C115.62 111.11 113.44 109.97 111.98 108.36C111.516 107.749 110.975 107.201 110.37 106.73C109.883 106.44 109.348 106.24 108.79 106.14C106.983 105.654 105.074 105.696 103.29 106.26C101.61 106.87 98.95 109.04 98.65 110.92C98.34 113.04 101.14 114.53 102.84 113.31Z" fill="#473F47"/>
<path d="M319.2 123.16H270.13V261.75H319.2V123.16Z" fill="#E8610D"/>
<path d="M241.42 168.71H192.35V261.75H241.42V168.71Z" fill="#E8610D"/>
<path d="M167.65 200.77H118.58V261.75H167.65V200.77Z" fill="#E8610D"/>
</g>
<defs>
<linearGradient id="paint0_linear" x1="167.65" y1="171.66" x2="167.65" y2="287.67" gradientUnits="userSpaceOnUse">
<stop offset="0.01"/>
<stop offset="0.08" stop-opacity="0.69"/>
<stop offset="0.21" stop-opacity="0.32"/>
<stop offset="1" stop-opacity="0"/>
</linearGradient>
<linearGradient id="paint1_linear" x1="15532.3" y1="44792.1" x2="18351.9" y2="-9886.19" gradientUnits="userSpaceOnUse">
<stop offset="0.01"/>
<stop offset="0.08" stop-opacity="0.69"/>
<stop offset="0.21" stop-opacity="0.32"/>
<stop offset="1" stop-opacity="0"/>
</linearGradient>
<linearGradient id="paint2_linear" x1="11631.5" y1="28779.4" x2="12835.4" y2="-6028.41" gradientUnits="userSpaceOnUse">
<stop offset="0.01"/>
<stop offset="0.08" stop-opacity="0.69"/>
<stop offset="0.21" stop-opacity="0.32"/>
<stop offset="1" stop-opacity="0"/>
</linearGradient>
<linearGradient id="paint3_linear" x1="7926.57" y1="18730.8" x2="8438.76" y2="-3871.04" gradientUnits="userSpaceOnUse">
<stop offset="0.01"/>
<stop offset="0.08" stop-opacity="0.69"/>
<stop offset="0.21" stop-opacity="0.32"/>
<stop offset="1" stop-opacity="0"/>
</linearGradient>
<linearGradient id="paint4_linear" x1="2950.43" y1="-3210.24" x2="4109.05" y2="-1777.32" gradientUnits="userSpaceOnUse">
<stop offset="0.01"/>
<stop offset="0.08" stop-opacity="0.69"/>
<stop offset="0.21" stop-opacity="0.32"/>
<stop offset="1" stop-opacity="0"/>
</linearGradient>
<linearGradient id="paint5_linear" x1="2491.07" y1="-4641.85" x2="2064.17" y2="-4317.63" gradientUnits="userSpaceOnUse">
<stop offset="0.01"/>
<stop offset="0.08" stop-opacity="0.69"/>
<stop offset="0.21" stop-opacity="0.32"/>
<stop offset="1" stop-opacity="0"/>
</linearGradient>
<linearGradient id="paint6_linear" x1="2051.6" y1="-3786.41" x2="2726.69" y2="-3759.15" gradientUnits="userSpaceOnUse">
<stop offset="0.01"/>
<stop offset="0.08" stop-opacity="0.69"/>
<stop offset="0.21" stop-opacity="0.32"/>
<stop offset="1" stop-opacity="0"/>
</linearGradient>
<clipPath id="clip0">
<rect width="352.84" height="312.45" fill="white"/>
</clipPath>
</defs>
</svg>
